<svg xmlns="http://www.w3.org/2000/svg" xmlns:xlink="http://www.w3.org/1999/xlink" width="542" height="468" viewBox="0 0 542 468">
  <defs>
    <path id="blog-a" d="M177.99944,119.395147 C177.99944,122.477816 175.478796,125 172.39801,125 L5.60142994,125 C2.52064347,125 0,122.477816 0,119.395147 L0,5.60485335 C0,2.52218401 2.52064347,0 5.60142994,0 L172.39857,0 C175.479357,0 178,2.52218401 178,5.60485335 L178,37.8036149 C178,40.8862843 178,45.9306523 178,49.0133216 L178,119.395147 L177.99944,119.395147 Z"/>
    <path id="blog-c" d="M177.99944,119.395147 C177.99944,122.477816 175.478796,125 172.39801,125 L5.60142994,125 C2.52064347,125 0,122.477816 0,119.395147 L0,5.60485335 C0,2.52218401 2.52064347,0 5.60142994,0 L172.39857,0 C175.479357,0 178,2.52218401 178,5.60485335 L178,37.8036149 C178,40.8862843 178,45.9306523 178,49.0133216 L178,119.395147 L177.99944,119.395147 Z"/>
  </defs>
  <g fill="none" fill-rule="evenodd">
    <g fill-rule="nonzero" transform="translate(0 1)">
      <path fill="#4B4BA9" d="M415.797089,431.698124 C9.62052146,589.987974 -91.2450662,166.13871 79.456802,140.695329 C227.021158,118.698715 15.5540572,67.3310358 152.993774,19.4044652 C264.852957,-19.6019288 506.919971,-19.5747711 539.206948,211.511324 C555.369082,327.192989 499.705036,398.999108 415.797089,431.698124 Z"/>
      <path fill="#5151B0" d="M326.374474,3 C325.879149,13.895538 324.625603,24.9540507 322.520187,36.1755382 C314.933471,82.4671447 277.029223,113.047537 240.084033,139.692769 C191.144971,173.90614 136.225897,153.118942 82.6607882,153.28984 C68.1620805,153.968901 52.3669514,152.366316 38.1266253,157.452485 C3.66257655,184.274273 -7.63964564,236.865305 5.04813399,291.183416 C7.92756605,288.651649 11.0529684,286.299833 14.4751148,284.169845 C52.0149205,261.391866 90.7800646,279.040668 130.79537,286.510342 C174.736044,293.018013 210.461537,309.253236 254.547763,312.639488 C283.960395,314.375621 313.666385,309.872313 341.363994,298.453898 C383.28162,281.699193 418.672006,255.127526 451.167164,224.020861 C475.46745,200.995025 500.709869,178.239682 525,154.6208 C490.676989,56.4025098 409.186354,14.5089567 326.374474,3 Z"/>
      <path fill="#4B4BA9" d="M539.20624,211.456068 C536.325548,190.840056 531.770009,172.074562 525.79164,155 C501.463408,178.619849 476.18022,201.376123 451.839557,224.402901 C419.290786,255.509706 383.84437,282.083592 341.859044,298.838983 C314.1167,310.257865 284.362732,314.761357 254.902596,313.025153 C210.745166,309.638762 174.961973,293.402875 130.95033,286.894938 C90.8703961,279.423827 52.0426426,261.775435 14.4422063,284.554345 C11.0134027,286.684421 7.88295251,289.036332 5,291.568203 C31.8721461,406.429324 166.183151,528.969811 415.781743,431.690305 C499.700411,398.984245 555.371569,327.162655 539.20624,211.456068 Z"/>
      <path fill="#5858B8" d="M83.4958704,153.893708 C137.014922,153.723797 191.886773,174.528916 240.783755,140.284915 C277.69605,113.61671 315.568834,83.0099521 323.149027,36.6784342 C325.252632,25.4484046 326.5051,14.3792248 327,3.47429298 C262.855827,-5.45513237 197.91801,3.89001023 153.529236,19.4210709 C16.4127373,67.3973338 227.383137,118.81714 80.1645986,140.837694 C63.9862293,143.25837 50.258684,149.282305 39,158.05881 C53.2280816,152.968256 69.0096293,154.572222 83.4958704,153.893708 Z"/>
    </g>
    <g fill-rule="nonzero" transform="translate(60 119)">
      <g transform="translate(0 47)">
        <polygon fill="#30308A" points="201.393 90.667 165.546 90.667 149.358 120.396 150.374 120.396 149.771 121.5 185.617 121.5 201.806 91.772"/>
        <polygon fill="#FFF" points="152.569 120.099 167.092 93.47 198.595 93.47 184.071 120.099"/>
        <path fill="#4B4BA9" d="M12.1000604,0 L31,0 L29.8999396,2 L11,2 L12.1000604,0 Z M3.04412396,17 L16,17 L14.955876,19 L2,19 L3.04412396,17 Z M10.5329024,3 L38,3 L37.4670976,4 L10,4 L10.5329024,3 Z M9.53290236,5 L37,5 L36.4670976,6 L9,6 L9.53290236,5 Z M8.53599324,7 L29,7 L28.4640068,8 L8,8 L8.53599324,7 Z M7.53290236,9 L35,9 L34.4670976,10 L7,10 L7.53290236,9 Z M1.53444333,20 L25,20 L24.4655567,21 L1,21 L1.53444333,20 Z M6.53444333,11 L30,11 L29.4655567,12 L6,12 L6.53444333,11 Z M0.532902357,22 L28,22 L27.4670976,23 L0,23 L0.532902357,22 Z M4.53661572,14 L24,14 L23.4633843,15 L4,15 L4.53661572,14 Z" transform="translate(156 95)"/>
        <polygon fill="#30308A" points="185.615 119.849 136.328 119.849 132.195 122.408 185.615 122.408"/>
        <path fill="#A2A2ED" d="M52.488828,41.0543147 C49.7028916,46.5719172 57.5963779,65.6618767 57.0382977,64.5367538 C55.885304,62.2099998 39.0156559,56.5753845 39.0156559,56.5753845 L32.2550725,36.0182648 L52.488828,41.0543147 Z"/>
        <path fill="#A2A2ED" d="M41.6108639,36.1409146 C45.2253572,50.6155174 59.793655,50.3609501 63.7642452,49.1807854 C67.4344469,48.0921756 71.1680033,34.2461753 71.3547904,32.8739687 C72.6011297,23.6849853 72.2745255,8.90110574 66.7320839,6.06625412 C56.0535446,0.60980677 38.7828424,1.01175501 30.7750303,9.88029631 C22.7661258,18.7466046 38.5578241,23.912756 41.6108639,36.1409146 Z"/>
        <path fill="#9595E6" d="M48.3826087,40.1238032 L32.2550725,36.0182648 L38.8260725,56.4631521 C38.8260725,56.4631521 43.0244827,57.8988037 47.3172757,59.6164384 C45.7073427,53.3255317 45.9091267,46.4281377 48.3826087,40.1238032 Z"/>
        <path fill="#9595E6" d="M64.5298098,26.6580214 C66.3255349,16.5604826 61.5060616,13.7734145 66.9913043,6.2775859 C66.874713,6.20388939 66.7592112,6.12907626 66.6382613,6.06654589 C55.9859503,0.609654121 38.7576679,1.0116351 30.7695243,9.88089871 C22.780291,18.7479291 38.5332023,23.9145013 41.5787433,36.1436559 C44.2788688,46.9826263 53.1038551,49.5620042 59.0304017,49.6803653 C57.6389327,42.5284537 63.1187273,34.5882128 64.5298098,26.6580214 Z"/>
        <path fill="#30308A" d="M56.4561381,24.6619314 C49.7914163,24.208767 45.502965,37.7738536 43.8994476,42.9244528 C39.3023329,57.6821352 55.4316382,63.854012 44.9151911,75.1864354 C38.5186343,82.0789539 29.8815314,82.9510189 31.3186771,95.4185636 C32.7558227,107.886108 24.9462004,113.623611 12.0184572,116.491809 C-3.29650208,119.889436 -3.47272481,88.7692064 8.63629422,72.5437138 C22.6060502,53.8225017 -2.76783389,41.9761236 13.7784954,30.5630148 C26.2530945,21.9584194 26.8583813,3.6848452 39.8145829,0.811120345 C54.1072314,-2.3599245 79.6792292,3.6848452 71.6769659,20.3911341 C71.6769659,20.3911341 70.4455959,16.6972924 68.7884455,16.6785027 C68.7884455,16.6785027 67.2615467,25.3936259 56.4561381,24.6619314 Z"/>
        <path fill="#2B2B7D" d="M39.8233265,0.81168028 C26.8639831,3.69248454 26.2574035,22.0110756 13.7787252,30.6368683 C-2.77301464,42.0780933 22.6091666,53.9536548 8.6348426,72.7209865 C2.89970908,80.4204899 -0.0762536821,91.4661582 0.00148485942,100.60274 C8.84944477,93.8960058 19.5018148,88.0357852 25.6300206,79.7667689 C33.2943839,69.7947542 22.3452935,60.9307411 20.1554755,52.066728 C19.0605664,48.7427231 21.2503845,44.3107166 22.3452935,44.3107166 C36.2046521,39.9285701 33.9272413,22.8454008 33.2943839,24.3666871 C33.9272413,22.8454008 35.8936979,15.3708218 36.579111,13.2866707 C44.1460273,0.265435473 61.7620188,5.00214247 66.9913043,4.67749799 C59.8229349,0.200063376 47.9880631,-1.0032264 39.8233265,0.81168028 Z"/>
        <path fill="#30308A" d="M48.2507358,165.245605 C50.7605578,164.392839 106.773392,129.712293 127.112643,116.087896 C131.658751,113.044426 144.019846,123.368698 144.019846,123.368698 L191.075503,205.647627 L181.741123,208.68126 L134.335515,157.059403 C134.335515,157.059403 131.390437,154.683064 129.192305,155.954106 C116.972279,163.031604 77.8889796,187.841317 66.6176953,186.988709 C53.3177554,185.982343 35.9560998,171.498565 35.9560998,171.498565 L48.2507358,165.245605" transform="rotate(25 113.516 162.104)"/>
        <polyline fill="#30308A" points="100.645 139.105 147.629 150.201 138.295 255.854 128.467 255.854 124.138 168.923 78.157 169.456"/>
        <path fill="#A8F8A9" d="M61.2499382,62.166606 C61.2499382,62.166606 41.6892737,50.6818308 35.4639717,56.1017113 C32.3198798,58.8380685 25.6974294,64.0234984 25.9765365,70.6002218 C27.7537758,112.541555 19.063947,146.063582 32.3772457,165.802558 C37.9671102,174.08978 57.2762473,176.967027 56.2293199,169.817936 C53.7736186,153.057473 73.1941779,135.277828 73.1941779,135.277828 C73.1941779,135.277828 60.8594089,132.781353 65.6329127,108.4062 C66.0554345,106.245512 73.2096226,105.654433 73.1941779,96.1002972 C73.1897652,93.5081325 66.3246129,83.2396384 65.8270741,80.834594 C65.3725598,78.6408852 68.2187904,77.4323091 61.2499382,62.166606 Z"/>
        <path fill="#81DB82" d="M63.4800087 119.232877C63.5864736 116.295963 63.9457928 112.92515 64.6664786 109.040566 64.8108205 108.262354 65.8007397 107.689218 66.9913043 106.812785 64.8486974 107.830613 62.7050668 108.338988 60.5624598 108.436129 57.9202866 108.557017 60.9913907 113.168004 63.4800087 119.232877zM58.3072464 154.455371C42.5921742 146.25764 29.2741686 135.419941 33.943977 114.851486 34.966929 109.702234 25.5553348 66.3305767 36.0051489 55.890411 35.7717675 56.0342693 35.5482012 56.1924038 35.3420841 56.3746976 32.2339678 59.1047126 25.6872934 64.2781238 25.9632069 70.8396038 27.7201105 112.683727 19.1297133 146.128057 32.2906773 165.821282 37.8165808 174.089296 56.9047771 176.959875 55.8698289 169.827354 55.0813488 164.403564 56.3049652 159.122533 58.3072464 154.455371z"/>
        <g transform="rotate(14 -225.46 213.146)">
          <path fill="#A2A2ED" d="M86.5870463,34.0238845 C86.5870463,34.0238845 101.934023,29.0824544 103.788958,29.7434056 C105.984178,28.4111052 107.870496,27.4673211 109.447911,26.9120531 C111.025327,26.3567852 112.746767,26.2083469 114.612232,26.4667384 C114.612232,26.4667384 119.170482,28.8280628 119.049507,29.7649453 C118.873311,31.1177968 108.082612,34.0919088 106.773821,35.0771219 C106.323314,35.4150385 104.775262,34.8681037 102.539185,35.5767647 C100.510392,36.2197332 100.104293,37.3049808 99.1778848,37.7509772 C96.0656745,39.2492735 90.3331431,42.8991466 87.1276846,43.4277956 C85.5403339,43.6893962 85.3601212,40.5547592 86.5870463,34.0238845 Z" transform="rotate(5 102.418 34.893)"/>
          <path fill="#A8F8A9" d="M5.9372951e-11,25.4610425 C5.9372951e-11,25.4610425 35.0398505,44.0570062 46.5519705,49.3117714 C48.0360578,49.9905437 49.8675315,51.2827169 51.437366,50.8272967 C72.3377123,44.7564794 100.160603,37.4965237 100.160603,37.4965237 C99.1703893,33.7895937 98.5850978,31.4394127 98.4047285,30.4459807 C98.3229701,29.9956748 96.0400415,30.2649939 91.5559425,31.2539381 L50.7799703,33.0092518 L13.9735063,-4.22062385e-12 C11.1955148,9.91356182 5.9372951e-11,25.4610425 5.9372951e-11,25.4610425 Z"/>
          <path fill="#81DB82" d="M51.2955532,47.0673872 C46.3705821,44.7983898 39.769142,41.8913402 32.5553784,38.8432359 C28.5010718,37.1296415 24.2521849,35.3741714 19.9989007,33.658373 C13.1380201,30.8945821 6.26724564,28.2453981 0.179189798,26.0821918 C0.065959435,26.2904679 9.01678732e-12,26.4116868 9.01678732e-12,26.4116868 C9.01678732e-12,26.4116868 35.0398505,45.220452 46.5519705,50.5353497 C48.0360578,51.2218895 49.8675315,52.5288496 51.437366,52.0682178 C72.3377123,45.9279296 100.500071,38.3474993 100.500071,38.3474993 L99.7328122,35.2666481 C84.4027402,39.140143 66.224372,48.9506881 51.2955532,47.0673872 Z"/>
        </g>
        <path fill="#A8F8A9" d="M129.02029 272L158.794203 272C158.794203 272 158.748971 263.480507 156.770883 263.480507 146.861691 263.480507 138.900798 255.853881 138.900798 255.853881L129.02029 255.853881 129.02029 272zM159.970985 243.43379L188.568116 234.220578C188.568116 234.220578 185.940374 226.016925 184.038791 226.628063 174.520871 229.697257 164.560359 224.803653 164.560359 224.803653L155.072464 227.861593 159.970985 243.43379z"/>
        <polygon fill="#6F6FBA" points="34.625 272 24.812 272 52.214 182.575 62.029 182.575"/>
        <polygon fill="#6F6FBA" points="9.814 272 0 272 27.403 182.575 37.217 182.575"/>
        <polygon fill="#6F6FBA" points="99.246 173.881 106.69 173.881 106.69 272 99.246 272"/>
        <path fill="#6F6FBA" d="M10.8631084,72.5862802 C26.1292447,80.5969654 21.5075277,141.402534 31.5764248,151.560755 C41.6453219,161.716764 100.688414,165.787351 119.461398,165.787351 C131.650409,165.787351 132.696215,179.818215 119.61816,179.818215 C97.4600086,179.818215 30.6358572,194.405314 16.175452,179.818215 C1.71614299,165.233327 19.9201828,107.947639 10.8631084,95.2736376 C1.80713031,82.5996367 4.28023122,69.1305387 10.8631084,72.5862802 Z"/>
        <path fill="#A2A2ED" d="M118.274611,166.587721 C99.5957415,166.587721 40.8475623,162.535209 30.8302348,152.428144 C20.8118165,142.317776 25.4103632,81.7986528 10.2207614,73.8257046 C7.76005895,72.5335675 5.87744709,73.6187866 4.96231884,76.1469288 C5.2480919,76.234979 5.54040939,76.347243 5.84472498,76.5079347 C21.0343268,84.4808829 16.4357801,145.000006 26.4541984,155.108172 C36.4726166,165.21854 95.2197052,169.26775 113.898574,169.26775 C122.303793,169.26775 125.377489,175.972775 122.144545,180.091324 C131.079862,177.695257 129.094721,166.587721 118.274611,166.587721 Z"/>
        <g transform="translate(233.606 50.922)">
          <path fill="#71BF72" d="M57.1812342,137.271347 C65.5891081,129.643548 62.7653316,121.361468 76.9313252,114.917376 C87.4620791,110.127378 91.0261716,106.553994 94.4585455,103.885571 C100.44549,99.2272034 109.620601,105.345122 101.207919,113.09197 C93.9162881,119.807065 92.4731528,119.674467 89.8205142,126.014996 C85.1036441,137.288769 71.9721699,127.980744 70.1108041,132.778486 C68.2494383,137.574291 71.1645525,142.145551 67.7667907,147.723397 C64.3671061,153.302211 47.6225055,158.723262 47.6225055,158.723262 C47.6225055,158.723262 48.7733603,144.897211 57.1812342,137.271347 Z"/>
          <path fill="#71BF72" d="M57.1812342,137.271347 C54.294002,139.889441 52.2634212,143.239246 50.8404762,146.50775 C51.2817814,150.415049 51.8317304,152.90248 51.8317304,152.90248 C51.8317304,152.90248 62.1875006,145.159504 69.4310594,136.841612 C69.4445197,135.486591 69.5810455,134.140282 70.1108041,132.777518 C70.6088348,131.496055 71.9144829,131.224083 73.6450916,131.295706 C74.878631,129.344476 75.7747017,127.45035 76.1419754,125.711084 C76.9649759,121.796042 76.6025096,118.489792 75.835273,115.439059 C62.9133948,121.806689 65.3631675,129.847769 57.1812342,137.271347 Z" opacity=".7"/>
          <path fill="#FFF" d="M46.2716693,162.57636 L44.4545301,161.788513 C65.8919646,126.243414 78.5715577,117.389321 91.3521029,113.333938 C91.3530643,113.333938 67.904278,125.190369 46.2716693,162.57636 Z"/>
          <path fill="#81DB82" d="M52.2124643,109.870892 C60.8501246,93.5361162 54.3497661,89.258122 72.0856209,72.2564828 C85.2709362,59.6151068 86.9755858,44.0875366 90.7223536,38.1486742 C97.2573243,27.7876046 118.96108,42.2088971 114.670132,58.1768491 C110.38303,74.1428653 88.3091159,66.9448013 94.8613928,76.594485 C106.273796,93.3957747 69.4589414,87.9098763 69.0897449,96.6323386 C68.7224713,105.350929 75.3007072,111.537567 73.0509159,122.241263 C70.7963174,132.941088 48.7425939,149.432659 48.7425939,149.432659 C48.7425939,149.432659 43.5728812,126.203731 52.2124643,109.870892 Z"/>
          <path fill="#81DB82" d="M94.5835339,71.8944987 C94.0960791,70.591743 94.0845417,69.4486862 94.9584991,68.5688905 C100.727195,61.7937867 108.418789,55.0186828 104.572992,45.339963 C103.300033,41.4984791 100.760846,37.6608667 97.5198,34.6614314 C94.7575562,34.6023912 92.2972075,35.6486608 90.7223536,38.1477063 C86.9765472,44.0875366 85.2709362,59.6151068 72.0856209,72.2555149 C54.3497661,89.2571541 60.8501246,93.5351483 52.2124643,109.869924 C43.5738426,126.202763 48.7435554,149.431691 48.7435554,149.431691 C48.7435554,149.431691 70.7972788,132.94012 73.0518774,122.240296 C74.793062,113.962086 71.2606974,108.38424 69.7377617,102.247932 C69.3656809,103.519716 69.1099354,104.871833 68.9993687,106.315898 C69.1089739,104.871833 69.3656809,103.519716 69.7377617,102.247932 C69.2906878,100.450594 69.0070603,98.6067975 69.0907064,96.6313708 C69.2051188,93.9242328 72.8307441,92.5856659 77.4351246,91.5258461 C81.6828075,88.2292741 86.9880846,85.9170279 92.0751128,84.0548422 C94.0768501,82.7104681 94.6912162,80.435001 95.842071,78.1982489 C95.5661351,77.6862446 95.2430881,77.1529471 94.8623542,76.5935171 C93.2259675,74.1854516 93.3740307,72.8265594 94.5835339,71.8944987 Z"/>
          <path fill="#71BF72" d="M92.0741513 84.0558101C86.9871232 85.9179958 81.6818461 88.230242 77.4341632 91.5268139 87.17076 89.2832867 101.282912 88.2796034 95.8411096 78.1992168 94.6892933 80.435001 94.0758887 82.7114359 92.0741513 84.0558101zM97.5198 34.6623993C100.760846 37.6628024 103.300033 41.499447 104.572992 45.3409308 108.418789 55.0196507 100.727195 61.7947545 94.9584991 68.5698584 94.0855032 69.4486862 94.0970406 70.5927108 94.5835339 71.8954665 98.2197351 69.0954129 111.453123 70.1581363 114.670132 58.1768491 117.925599 46.0571561 106.215147 34.8414556 97.5198 34.6623993zM51.8317304 152.903448C51.8317304 152.903448 51.2817814 150.416017 50.8404762 146.508718 48.1186133 152.762138 47.6215441 158.72423 47.6215441 158.72423 47.6215441 158.72423 64.3661446 153.302211 67.7658293 147.724365 70.1982959 143.731893 69.400293 140.255297 69.430098 136.843548 62.1875006 145.160472 51.8317304 152.903448 51.8317304 152.903448z"/>
          <path fill="#81DB82" d="M70.1108041,132.778486 C69.5810455,134.141249 69.4445197,135.487559 69.4310594,136.84258 C71.0405255,134.993945 72.4913525,133.120144 73.6450916,131.296674 C71.9144829,131.224083 70.6078733,131.496055 70.1108041,132.778486 Z"/>
          <path fill="#FFF" d="M48.6599093,156.373269 L45.5823101,155.899012 C59.6079322,87.8092177 79.1945768,62.0512406 95.8238035,56.3843502 C71.6971954,73.6357004 56.2688188,106.342998 48.6599093,156.373269 Z"/>
          <path fill="#71BF72" d="M41.4509626,113.621396 C34.4544962,96.5074832 49.8530678,80.7950494 33.8699351,62.1122165 C21.9873835,48.2251894 27.7224284,12.504906 24.5765664,6.22341684 C21.2393759,-0.440381752 13.5814325,-0.795590769 8.69534725,3.60919462 C11.6191145,6.01145288 13.7227655,9.10380386 14.1957986,12.4332835 C18.0415957,36.630083 22.848842,58.8911386 35.3476826,80.1843222 C42.0778275,90.830914 28.6175377,100.509634 33.4247841,111.156226 C39.0454165,122.473553 38.7483287,133.789912 36.9581101,144.912697 C39.3348128,146.546465 41.026002,147.523047 41.026002,147.523047 C41.026002,147.523047 48.4503133,130.732404 41.4509626,113.621396 Z"/>
          <path fill="#81DB82" d="M33.4257455,111.156226 C28.6184991,100.509634 42.078789,90.830914 35.3486441,80.1843222 C22.8498035,58.8911386 18.0425571,36.630083 14.19676,12.4332835 C13.723727,9.10477173 11.6200759,6.01242075 8.6963087,3.60919462 C5.54660087,6.44893101 3.54486348,11.2611905 4.60438058,17.6559207 C7.30701449,33.9713387 11.7854452,35.5257411 4.31690725,44.4785569 C-8.6847713,60.0651673 18.3194545,75.9982759 19.3982006,95.5338039 C20.2135096,110.293852 25.34188,112.967114 22.1344852,124.397682 C20.0019907,131.997413 30.7913745,140.673417 36.9590716,144.911729 C38.7492901,133.788944 39.0454165,122.473553 33.4257455,111.156226 Z"/>
          <path fill="#FFF" d="M39.8828388,154.436557 C38.800247,133.621502 33.4084394,108.726867 28.0022101,86.762948 C22.782502,65.5530014 17.541642,47.2331206 18.4155994,36.584593 C19.9250748,42.4034394 20.4346429,45.1154167 21.4730081,48.893021 C23.6305003,56.7395592 26.4023586,69.2318828 30.2933438,86.0109115 C35.4332516,108.180987 41.8961136,133.156924 42.9931272,154.273955 L39.8828388,154.436557 Z"/>
          <polygon fill="#8E8ED6" points="67.712 213.904 27.799 213.904 16.94 152.364 78.573 152.364"/>
          <path fill="#6F6FBA" d="M69.0474412,152.364343 C67.5071994,170.882638 71.4875994,187.697478 55.4823533,198.439889 C46.8408472,204.031285 42.9931272,213.903579 42.9931272,213.903579 L67.7119881,213.903579 L78.5725191,152.364343 L69.0474412,152.364343 Z"/>
          <path fill="#6F6FBA" d="M16.9397748,152.364343 L18.3204159,160.180877 C37.092713,162.039191 58.0417313,164.919578 77.3649388,159.207198 L78.5725191,152.364343 L16.9397748,152.364343 Z"/>
          <path fill="#A1A1DE" d="M13.4227933,152.364343 L14.5380745,157.415667 C44.2757006,160.509954 67.5773852,159.154933 81.1357429,156.68202 L82.0914235,152.364343 L13.4227933,152.364343 Z"/>
        </g>
        <g transform="translate(127.78 105.57)">
          <polygon fill="#A2A2ED" points=".155 16.983 299.359 16.983 299.359 30.855 .155 30.855"/>
          <polygon fill="#30308A" points=".155 16.983 107.896 16.983 107.896 30.855 .155 30.855"/>
          <polygon fill="#E0E0F9" points=".155 16.837 299.359 16.837 299.359 19.053 .155 19.053"/>
          <polygon fill="#30308A" points="17.264 158.022 8.548 158.022 31.458 24.73 40.174 24.73"/>
          <polygon fill="#30308A" points="67.361 158.022 58.644 158.022 81.553 24.73 90.27 24.73"/>
          <polygon fill="#A2A2ED" points="70.292 158.022 61.576 158.022 84.486 24.73 93.202 24.73"/>
          <polygon fill="#A2A2ED" points="282.352 158.022 291.069 158.022 268.159 24.73 259.442 24.73"/>
          <g transform="translate(135.223)">
            <path fill="#E6E6F2" d="M20.3250985,0.034473355 C18.8572981,4.51105949 21.7494908,9.4193581 19.0531394,12.0164392 C16.3850538,15.22803 11.5152676,17.152262 6.47992487,16.9782158 L6.47992487,18.6749236 L23.1365319,18.6749236 L23.1365319,0.034473355 L20.3250985,0.034473355 Z"/>
            <path fill="#FFF" d="M19.0531394,12.0164392 C21.7494908,9.4193581 18.8572981,4.51105949 20.3250985,0.034473355 L6.47992487,0.034473355 L6.47992487,2.0345467 C2.92146792,2.7083682 0.228145041,5.73230019 0.228145041,9.35518463 C0.228145041,12.9770967 2.92146792,16.0020011 6.47992487,16.6748502 L6.47992487,16.9782158 C11.5152676,17.1532343 16.3850538,15.22803 19.0531394,12.0164392 Z M6.47992487,14.2780681 C4.26005342,13.6509182 2.62467747,11.6936272 2.62467747,9.35518463 C2.62467747,7.01576972 4.26005342,5.05945102 6.47992487,4.43132881 L6.47992487,14.2780681 Z"/>
          </g>
        </g>
      </g>
      <g transform="translate(214)">
        <path fill="#30308A" d="M202.010772,146.236552 C202.008237,173.062802 181.331047,203.916937 181.331047,203.916937 C176.180763,193.458189 174.769918,175.376639 165.891605,168.437674 C153.297939,160.00624 120.005533,138.143852 113.062855,138.297938 C114.431869,131.478677 111.42384,137.635751 114.431869,131.478677 C117.390462,131.55763 202.012039,138.006321 202.010772,146.236552 Z"/>
        <path fill="#2B2B7D" d="M202.010772,146.236552 C202.008237,173.062802 181.331047,203.916937 181.331047,203.916937 C176.180763,193.458189 174.769918,175.376639 165.891605,168.437674 C153.297939,160.00624 120.005533,138.143852 113.062855,138.297938 C114.431869,131.478677 111.42384,137.635751 114.431869,131.478677 C117.390462,131.55763 202.012039,138.006321 202.010772,146.236552 Z"/>
        <path fill="#30308A" d="M82.0343937,154.957057 C81.2484779,149.718132 87.1580573,144.688051 90.4474951,139.384181 C97.9872159,139.05054 112.506376,141.085495 113.062855,138.296665 C120.005533,138.142579 126.944409,138.346329 133.885819,139.447853 C149.626951,142.608527 164.318506,151.042508 176.909637,159.477763 C185.78795,166.414181 187.52964,260.605313 187.52964,260.605313 L177.438228,260.605313 C173.981467,260.605313 146.536528,170.252324 146.536528,170.252324 L102.785105,170.252324 C86.0222823,170.252324 83.8686196,167.152775 82.0343937,154.957057 Z"/>
        <path fill="#2B2B7D" d="M108.854403,158.304926 C101.722851,156.258511 101.961161,147.629694 102.330034,139.692353 C98.1849624,139.5319 93.6773553,139.241556 90.4474951,139.384181 C87.1567897,144.686778 81.2484779,149.716859 82.0343937,154.957057 C83.8686196,167.152775 86.0222823,170.253597 102.786372,170.253597 L146.537796,170.253597 C146.537796,170.253597 160.033997,214.687677 169.290057,241.232497 C168.10738,215.134654 168.383718,188.890366 159.558645,167.220268 C153.220615,154.484612 126.600887,163.398679 108.854403,158.304926 Z"/>
        <path fill="#30308A" d="M176.910904,159.477763 C164.319773,151.043782 149.629487,142.6098 133.887087,139.447853 C126.945676,138.346329 120.006801,138.142579 113.064122,138.296665 C112.745953,139.89101 107.861867,139.908838 102.330034,139.692353 C101.961161,147.629694 101.722851,156.258511 108.854403,158.304926 C126.600887,163.398679 153.220615,154.484612 159.558645,167.218994 C168.383718,188.890366 168.10738,215.133381 169.290057,241.231224 C173.232312,252.540629 176.406397,260.605313 177.439496,260.605313 L187.530908,260.605313 C187.52964,260.605313 185.78795,166.415455 176.910904,159.477763 Z"/>
        <path fill="#A2A2ED" d="M127.115536,43.3223685 L127.961029,43.5987046 L174.309777,111.306142 L167.804422,121.213491 L123.966802,85.0478455 C123.594126,71.1393532 125.874549,57.2308609 127.115536,43.3223685 Z"/>
        <path fill="#A2A2ED" d="M151.953009,101.000206 C156.750898,108.573343 163.407097,113.161541 170.708508,116.789567 L174.311044,111.303595 L127.962296,43.5961577 L127.116803,43.3198216 C126.145817,54.2038982 124.554971,65.0879747 124.082154,75.9707778 C134.040467,83.8979308 144.38033,90.1326844 151.953009,101.000206 Z"/>
        <path fill="#8E8ED6" d="M151.953009,101.000206 C144.38033,90.1326844 134.040467,83.8966574 124.080887,75.9720513 C123.949056,78.9977405 123.88821,82.0221563 123.969337,85.0465721 L167.806958,121.212218 L170.709775,116.789567 C163.407097,113.161541 156.750898,108.574617 151.953009,101.000206 Z"/>
        <path fill="#A2A2ED" d="M92.6138338,53.4321946 C106.463698,47.8736368 127.115536,43.3223685 127.115536,43.3223685 C126.214268,53.4309212 136.177651,77.8389117 136.333567,92.1841933 C136.391877,97.5772042 128.383142,106.929335 128.432578,107.372491 C128.326099,106.402131 128.239902,115.73898 128.847085,124.203524 C129.218494,129.377504 131.948917,132.896014 131.948917,132.896014 C115.232996,140.74294 109.516093,160.089013 81.1255201,160.089013 C81.8936894,158.851231 80.6032664,155.99873 81.1255201,150.035219 C81.6579147,143.958371 83.999183,134.710663 84.3084789,127.445698 C84.8636904,114.44262 85.0905919,102.551254 85.0905919,102.551254 C85.0905919,102.551254 80.6958017,58.2126817 92.6138338,53.4321946 Z"/>
        <path fill="#8E8ED6" d="M103.081725,154.839901 C101.891443,153.562643 100.838062,152.173321 99.9811602,150.665571 C93.6431299,143.024941 94.910736,129.017121 94.910736,118.829615 C92.5073549,103.536895 90.6300303,88.2454489 91.1662277,72.9552761 C89.2267904,74.4248238 86.9501699,75.6116682 84.542986,76.4432234 C83.7786196,89.2578323 85.0918595,102.552527 85.0918595,102.552527 C85.0918595,102.552527 84.864958,114.443894 84.3097465,127.446971 C83.999183,134.711936 81.6591823,143.959645 81.1267877,150.036492 C80.604534,156.000003 81.894957,158.852505 81.1267877,160.090287 C90.5260866,160.089013 97.4320044,157.961098 103.081725,154.839901 Z"/>
        <path fill="#A2A2ED" d="M117.727645,112.46115 C116.460039,111.187712 118.995251,108.640836 118.995251,107.367397 C124.326802,107.367397 129.029621,104.859997 132.679058,101.170847 C134.565256,98.201189 136.361454,94.7476245 136.333567,92.1829199 C136.177651,77.8376383 126.213,53.4283743 127.115536,43.3210951 C127.115536,43.3210951 107.196374,47.7131835 93.362989,53.1354835 C89.089889,75.0335273 91.4704532,96.9315711 94.9120036,118.828341 C94.9120036,129.015847 93.6443975,143.023668 99.9824278,150.664297 C100.840597,152.173321 101.89271,153.561369 103.082992,154.838628 C113.671306,148.988452 119.836942,139.636322 129.593705,134.122335 C128.413564,125.876822 124.761591,117.95731 117.727645,112.46115 Z"/>
        <path fill="#FFF" d="M48.9017065,125.555916 L29.3818408,159.030786 L39.124661,162.025913 L61.5841051,134.496725 C60.0452314,128.567597 54.4525534,123.871157 48.9017065,125.555916 Z"/>
        <path fill="#FFF" d="M56.2703005,126.848455 C54.0786096,125.384001 51.4901581,124.770204 48.9017065,125.554642 L29.3818408,159.029513 L33.2886027,160.230365 C43.2710004,151.34304 48.9422699,138.580642 56.2703005,126.848455 Z"/>
        <path fill="#E6E6F2" d="M61.5828375,134.495452 C60.7626964,131.330958 58.7788929,128.526847 56.2703005,126.848455 C48.9435375,138.580642 43.2710004,151.341766 33.2886027,160.231639 L39.124661,162.02464 L61.5828375,134.495452 Z"/>
        <path fill="#A2A2ED" d="M88.1125647,58.3158302 L48.9017065,125.555916 C54.4525534,123.87243 60.0452314,128.567597 61.5828375,134.496725 L88.504255,101.495574 C93.8345384,81.7840233 94.1083414,77.450513 88.1125647,58.3158302 Z"/>
        <path fill="#A2A2ED" d="M88.1125647,58.3158302 L48.9017065,125.555916 C52.1429752,124.574095 55.3918495,125.773673 57.8459349,128.115526 C67.5938254,113.516831 79.8503084,101.439542 91.5883405,88.8388711 C93.5582003,78.5825996 92.5669324,72.533768 88.1125647,58.3158302 Z"/>
        <path fill="#8E8ED6" d="M57.8459349,128.114253 C59.5952312,129.78373 60.9426965,132.027529 61.5828375,134.495452 L88.504255,101.4943 C89.8732695,96.4298364 90.9063685,92.3841231 91.5883405,88.8388711 C79.8503084,101.438269 67.5938254,113.516831 57.8459349,128.114253 Z"/>
        <polygon fill="#30308A" points="154.396 138.419 208.538 138.419 233.928 93.175 232.8 91.21 183.864 91.21 180.89 91.21"/>
        <path fill="#30308A" d="M158.986955,20.9913558 C160.93273,31.438643 154.161178,43.3834936 145.440049,57.5899704 C139.216103,67.7290856 133.846524,74.1803237 136.333567,79.3899595 C117.612293,79.327561 128.18286,43.7502438 129.536663,38.9926785"/>
        <path fill="#FFF" d="M117.643983,17.8574243 C111.555671,27.1242343 121.510182,29.3361965 118.367786,37.2773573 C115.177222,45.3407681 122.557224,54.9208439 124.53976,57.443525 C127.033141,60.6092925 139.156525,54.2255466 147.909345,41.3663674 C154.396953,31.8359557 156.276813,12.3459836 147.982866,6.84473048 C139.048779,0.924516154 126.330887,4.63913547 117.643983,17.8574243 Z"/>
        <path fill="#FFF" d="M139.276948,42.4220477 C132.301312,42.4220477 124.726098,46.0373388 121.089336,52.4389128 C122.44314,54.7412891 123.833703,56.5457511 124.53976,57.443525 C127.033141,60.6092925 139.156525,54.2255466 147.909345,41.3663674 C150.430614,37.663209 152.252164,32.4522998 153.054558,27.1446093 C144.2054,27.2248359 132.978214,33.5640114 139.276948,42.4220477 Z"/>
        <path fill="#E6E6F2" d="M147.981599,6.84473048 C139.048779,0.924516154 126.330887,4.63913547 117.643983,17.8574243 C111.555671,27.1242343 121.510182,29.3361965 118.367786,37.2773573 C116.314264,42.4691649 118.641589,48.2798635 121.089336,52.4389128 C124.726098,46.0373388 127.55286,51.5284045 130.744692,45.2974712 C133.397791,40.1183979 140.515399,34.0695664 145.580753,32.9922376 C149.587656,32.1415809 148.939909,27.181539 153.054558,27.1446093 C154.314559,18.7984951 153.052023,10.2091543 147.981599,6.84473048 Z"/>
        <path fill="#30308A" d="M98.962005,67.730359 C101.782428,64.4690837 87.6701702,54.7387422 98.2027089,48.4364965 C108.322008,42.3825711 96.5041168,26.7358356 105.407782,20.9926292 C114.313982,15.2468759 115.350884,-0.177007914 130.614128,0.398586165 C149.014698,1.09515688 160.10118,18.5247059 160.10118,18.5247059 C160.10118,18.5247059 159.170757,31.0897209 151.781882,29.8570327 C144.361316,28.6217976 140.79554,31.5277837 136.333567,37.6097246 C133.766664,41.1078594 125.926521,37.7548966 123.927506,41.7675004 C119.991589,49.6640909 121.313703,74.4439254 118.266378,76.9806143 C108.666797,84.9688923 111.982854,101.705691 111.982854,101.705691 C111.982854,101.705691 96.8729902,96.2668363 95.2225671,79.3912329 C94.5291866,72.3020023 94.9056656,72.4217055 98.962005,67.730359 Z"/>
        <path fill="#2B2B7D" d="M99.9811602,56.4298682 C102.516372,53.8829918 108.854403,52.6095535 108.854403,50.0626771 C107.586797,36.0548566 115.192433,33.5079801 122.798069,27.140789 C131.339199,17.7797445 142.736245,12.7382026 154.363995,11.6863426 C149.33667,6.71993353 141.185963,0.797172331 130.614128,0.397312727 C115.349616,-0.178281352 114.313982,15.2456025 105.407782,20.9913558 C96.5053844,26.7345622 108.323276,42.3812977 98.2027089,48.435223 C87.6701702,54.7374688 101.782428,64.4690837 98.962005,67.7290856 C94.9056656,72.4217055 94.5291866,72.3020023 95.2225671,79.3899595 C95.364539,80.8467728 95.6142574,82.2118986 95.9374969,83.5018915 C97.8908778,79.2829907 100.545245,75.2894884 103.782711,71.7111269 C107.586797,66.617374 97.4459481,61.5236211 99.9811602,56.4298682 Z"/>
        <path fill="#30308A" d="M154.363995,11.6876161 C142.736245,12.739476 131.339199,17.781018 122.798069,27.1420624 C115.192433,33.5092535 107.586797,36.05613 108.854403,50.0639505 C108.854403,52.610827 102.516372,53.8842652 99.9811602,56.4311416 C97.4459481,61.5248946 107.586797,66.6186475 103.783978,71.7124004 C100.545245,75.2907618 97.8921454,79.2842641 95.9387645,83.5031649 C99.3752445,97.1607899 111.984122,101.706964 111.984122,101.706964 C111.984122,101.706964 108.666797,84.9701658 118.267645,76.9818878 C121.316238,74.4451988 119.992857,49.6653643 123.928774,41.7687739 C125.927789,37.7574435 133.767932,41.1091329 136.334834,37.6109981 C140.796808,31.5290571 144.362584,28.6230711 151.783149,29.8583061 C159.170757,31.0909943 160.102448,18.5259793 160.102448,18.5259793 C160.102448,18.5259793 158.088222,15.3665791 154.363995,11.6876161 Z"/>
        <path fill="#FFF" d="M39.1563511,162.02464 C39.1563511,162.02464 37.2156463,170.2103 33.3342365,170.2103 C27.5108543,170.2103 0.654084726,170.2103 0.654084726,170.2103 C0.654084726,170.2103 -0.875915786,165.496032 2.44014166,165.496032 C5.75746672,165.496032 18.1153582,162.129061 21.8294439,162.02464 C24.8146562,161.943139 31.1488837,155.699472 31.1488837,155.699472 C33.3380393,157.422434 37.8291676,155.699472 37.8291676,155.699472 C37.8291676,155.699472 40.8321263,158.42463 39.1563511,162.02464 Z"/>
        <path fill="#FFF" d="M37.3462097,155.863745 C36.1331107,156.248324 32.9019828,157.079879 31.1476161,155.699472 C31.1476161,155.699472 24.8133886,161.941866 21.8281763,162.02464 C18.1140906,162.129061 5.75619911,165.496032 2.43887406,165.496032 C1.9457753,165.496032 1.57056391,165.609368 1.27140888,165.786376 C15.3836671,167.110752 30.4973342,167.809869 37.3462097,155.863745 Z"/>
        <path fill="#E6E6F2" d="M37.8279,155.700745 C37.8279,155.700745 37.6466323,155.770784 37.3462097,155.865019 C30.4973342,167.811143 15.3836671,167.110752 1.27140888,165.786376 C-0.444929726,166.803853 0.65281712,170.211574 0.65281712,170.211574 C0.65281712,170.211574 27.5108543,170.211574 33.3329689,170.211574 C37.2156463,170.211574 39.1550835,162.025913 39.1550835,162.025913 C40.8321263,158.42463 37.8279,155.700745 37.8279,155.700745 Z"/>
        <polygon fill="#30308A" points="118.266 136.373 160.167 136.373 154.396 138.419 118.266 138.419"/>
        <path fill="#FFF" d="M177.438228,260.605313 L177.99344,265.775472 C180.599638,270.652741 188.494288,270.466819 188.494288,270.466819 L187.528373,260.606587 L177.438228,260.606587 L177.438228,260.605313 Z"/>
        <path fill="#E6E6F2" d="M177.438228,260.605313 L177.99344,265.775472 C179.392877,268.396208 182.314709,269.54867 184.72316,270.059319 C183.488512,267.138051 183.12978,263.847487 182.554286,260.605313 L177.438228,260.605313 Z"/>
        <path fill="#8E8ED6" d="M91.0660868,99.0811348 C96.6917225,104.744115 98.1177793,106.591873 103.392288,106.591873 C103.392288,106.591873 93.0118621,116.049699 90.022847,111.666525"/>
        <path fill="#4B4BA9" d="M177.03513,275.055017 C176.668792,276.657002 176.910904,280.504059 180.224427,282.395115 C188.136824,286.901813 190.798796,289.098493 202.544434,294.080184 C205.565139,295.361263 205.713449,286.490492 201.115842,283.477537 C191.213303,276.99319 188.202739,267.478059 188.202739,267.478059 C184.653442,271.810296 177.984567,265.806035 177.984567,265.806035 C177.984567,265.806035 178.02513,270.699858 177.03513,275.055017 Z"/>
        <path fill="#45459C" d="M177.748792,270.454084 C177.608088,271.894343 177.387524,273.506516 177.03513,275.055017 C176.668792,276.657002 176.910904,280.504059 180.224427,282.395115 C188.136824,286.901813 190.798796,289.098493 202.544434,294.080184 C204.057956,294.721997 204.850209,292.811839 204.684153,290.368111 C192.567107,286.936195 180.289074,280.528254 177.748792,270.454084 Z"/>
      </g>
    </g>
    <g transform="translate(149)">
      <g transform="translate(38)">
        <path fill="#FFF" fill-rule="nonzero" d="M177.99944,119.395147 C177.99944,122.477816 175.478796,125 172.39801,125 L5.60142994,125 C2.52064347,125 0,122.477816 0,119.395147 L0,5.60485335 C0,2.52218401 2.52064347,0 5.60142994,0 L172.39857,0 C175.479357,0 178,2.52218401 178,5.60485335 L178,37.8036149 C178,40.8862843 178,45.9306523 178,49.0133216 L178,119.395147 L177.99944,119.395147 Z"/>
        <mask id="blog-b" fill="#fff">
          <use xlink:href="#blog-a"/>
        </mask>
        <path fill="#E6E6F2" fill-rule="nonzero" d="M172.39801,0 L5.60142994,0 C2.52064347,0 0,2.50278087 0,5.56173526 L0,8.45939933 L0,15 L178,15 L178,8.45939933 L178,5.56173526 C177.99944,2.50278087 175.478796,0 172.39801,0 Z" mask="url(#blog-b)"/>
        <path fill="#A2A2ED" fill-rule="nonzero" d="M170,7.50027682 C170,8.88107629 168.578992,10 166.825407,10 L112.175296,10 C110.421711,10 109,8.88107629 109,7.50027682 C109,6.11947736 110.421008,5 112.175296,5 L166.825407,5 C168.578289,5 170,6.11947736 170,7.50027682 Z" mask="url(#blog-b)"/>
        <g fill-rule="nonzero" mask="url(#blog-b)">
          <g transform="translate(16 18)">
            <ellipse cx="13.8" cy="16" fill="#5858B8" rx="8.05" ry="8"/>
            <rect width="27.6" height="3.429" y="27.429" fill="#A2A2ED"/>
            <rect width="67.85" height="8" x="33.35" y="8" fill="#4B4BA9"/>
            <rect width="13.8" height="2.286" fill="#A2A2ED"/>
            <rect width="13.8" height="2.286" x="18.4" fill="#A2A2ED"/>
            <rect width="13.8" height="2.286" x="37.95" fill="#A2A2ED"/>
            <rect width="48.3" height="6.857" x="33.35" y="72" fill="#4B4BA9"/>
            <rect width="103.5" height="4.571" x="33.35" y="19.429" fill="#A2A2ED"/>
            <rect width="103.5" height="4.571" x="33.35" y="27.429" fill="#A2A2ED"/>
            <rect width="77.05" height="4.571" x="33.35" y="35.429" fill="#A2A2ED"/>
            <rect width="103.5" height="4.571" x="33.35" y="43.429" fill="#A2A2ED"/>
            <rect width="89.7" height="4.571" x="33.35" y="83.429" fill="#A2A2ED"/>
            <rect width="89.7" height="4.571" x="33.35" y="51.429" fill="#A2A2ED"/>
            <rect width="104.65" height="4.571" x="33.35" y="91.429" fill="#A2A2ED"/>
            <rect width="71.3" height="4.571" x="33.35" y="59.429" fill="#A2A2ED"/>
            <rect width="16.1" height="3.429" x="5.75" y="32" fill="#A2A2ED"/>
          </g>
        </g>
        <g fill="#A2A2ED" fill-rule="nonzero" mask="url(#blog-b)">
          <g transform="translate(5 4)">
            <ellipse cx="2.861" cy="2.732" rx="2.505" ry="2.616"/>
            <ellipse cx="10.766" cy="2.732" rx="2.505" ry="2.616"/>
            <ellipse cx="18.672" cy="2.732" rx="2.505" ry="2.616"/>
          </g>
        </g>
      </g>
      <g transform="translate(0 45)">
        <path fill="#FFF" fill-rule="nonzero" d="M177.99944,119.395147 C177.99944,122.477816 175.478796,125 172.39801,125 L5.60142994,125 C2.52064347,125 0,122.477816 0,119.395147 L0,5.60485335 C0,2.52218401 2.52064347,0 5.60142994,0 L172.39857,0 C175.479357,0 178,2.52218401 178,5.60485335 L178,37.8036149 C178,40.8862843 178,45.9306523 178,49.0133216 L178,119.395147 L177.99944,119.395147 Z"/>
        <mask id="blog-d" fill="#fff">
          <use xlink:href="#blog-c"/>
        </mask>
        <path fill="#E6E6F2" fill-rule="nonzero" d="M172.39801,0 L5.60142994,0 C2.52064347,0 0,2.50278087 0,5.56173526 L0,8.45939933 L0,15 L178,15 L178,8.45939933 L178,5.56173526 C177.99944,2.50278087 175.478796,0 172.39801,0 Z" mask="url(#blog-d)"/>
        <path fill="#A2A2ED" fill-rule="nonzero" d="M170,7.50027682 C170,8.88107629 168.578992,10 166.825407,10 L112.175296,10 C110.421711,10 109,8.88107629 109,7.50027682 C109,6.11947736 110.421008,5 112.175296,5 L166.825407,5 C168.578289,5 170,6.11947736 170,7.50027682 Z" mask="url(#blog-d)"/>
        <g fill-rule="nonzero" mask="url(#blog-d)">
          <g transform="translate(16 18)">
            <ellipse cx="13.8" cy="16" fill="#5858B8" rx="8.05" ry="8"/>
            <rect width="27.6" height="3.429" y="27.429" fill="#A2A2ED"/>
            <rect width="67.85" height="8" x="33.35" y="8" fill="#4B4BA9"/>
            <rect width="13.8" height="2.286" fill="#A2A2ED"/>
            <rect width="13.8" height="2.286" x="18.4" fill="#A2A2ED"/>
            <rect width="13.8" height="2.286" x="37.95" fill="#A2A2ED"/>
            <rect width="48.3" height="6.857" x="33.35" y="72" fill="#4B4BA9"/>
            <rect width="103.5" height="4.571" x="33.35" y="19.429" fill="#A2A2ED"/>
            <rect width="103.5" height="4.571" x="33.35" y="27.429" fill="#A2A2ED"/>
            <rect width="77.05" height="4.571" x="33.35" y="35.429" fill="#A2A2ED"/>
            <rect width="103.5" height="4.571" x="33.35" y="43.429" fill="#A2A2ED"/>
            <rect width="89.7" height="4.571" x="33.35" y="83.429" fill="#A2A2ED"/>
            <rect width="89.7" height="4.571" x="33.35" y="51.429" fill="#A2A2ED"/>
            <rect width="104.65" height="4.571" x="33.35" y="91.429" fill="#A2A2ED"/>
            <rect width="71.3" height="4.571" x="33.35" y="59.429" fill="#A2A2ED"/>
            <rect width="16.1" height="3.429" x="5.75" y="32" fill="#A2A2ED"/>
          </g>
        </g>
        <g fill="#A2A2ED" fill-rule="nonzero" mask="url(#blog-d)">
          <g transform="translate(5 4)">
            <ellipse cx="2.861" cy="2.732" rx="2.505" ry="2.616"/>
            <ellipse cx="10.766" cy="2.732" rx="2.505" ry="2.616"/>
            <ellipse cx="18.672" cy="2.732" rx="2.505" ry="2.616"/>
          </g>
        </g>
      </g>
    </g>
  </g>
</svg>
