<svg
            xmlns="http://www.w3.org/2000/svg"
            viewBox="0 0 575 479"
            role="img">
            <g
                fill="none"
                fill-rule="evenodd"
                transform="matrix(-1 0 0 1 575 0)">
                <g fill-rule="nonzero">
                    <path
                        fill="#5151B0"
                        d="M193.147,461.264 C16.693,462.385 -68.328,292.387 67.737,207.793 C190.663,131.367 139.692,26.547 255.638,4.8 C309.007,-5.21 416.685,-2.353 481.742,66.947 C546.801,136.248 578.973,269.686 529.473,360.201 C479.973,450.715 391.832,460.001 193.147,461.264 Z"/>
                    <path
                        fill="#4B4BA9"
                        d="M84.698,355.115 C122.807,345.134 160.917,335.153 191.766,308.84 C238.95,268.009 209.913,206.308 196.303,156.402 C185.414,119.2 178.156,75.647 207.192,46.611 C224.987,28.549 244.963,14.536 266.293,3.082 C262.545,3.595 258.984,4.172 255.639,4.799 C139.693,26.546 190.663,131.366 67.738,207.792 C2.575,248.305 -11.873,308.405 10.136,359.917 C35.046,360.546 60.053,361.993 84.698,355.115 Z"/>
                    <path
                        fill="#5151B0"
                        d="M481.742,66.8408501 C420.763,1.98870239 322.342,-4.58387383 266.293,3.07797486 C244.963,14.5148366 224.987,28.5056478 207.192,46.5380493 C178.156,75.5280726 185.415,119.012109 196.303,156.155202 C209.913,205.98118 238.949,267.584481 191.766,308.351826 C160.916,334.623161 122.807,344.588356 84.698,354.553552 C60.052,361.420661 35.046,359.975952 10.135,359.347948 C34.083,415.308198 101.198,461.117547 193.147,460.534472 C391.832,459.273472 479.972,450.002175 529.473,359.631499 C578.974,269.259824 546.801,136.032116 481.742,66.8408501 Z"/>
                    <path
                        fill="#5858B8"
                        d="M481.742,66.946 C479.981,65.071 478.183,63.253 476.361,61.473 C448.145,124.29 423.211,187.529 392.295,250.768 C379.592,276.174 366.889,301.581 346.927,323.357 C291.578,383.243 215.359,401.39 138.233,413.186 C110.496,417.246 82.883,418.276 55.305,417.551 C88.843,444.183 136.238,461.624 193.148,461.263 C391.833,460 479.973,450.714 529.474,360.2 C578.974,269.686 546.801,136.247 481.742,66.946 Z"/>
                </g>
                <g transform="translate(287 30)">
                    <circle
                        cx="25"
                        cy="26"
                        r="25"
                        fill="#4949A3"
                        fill-rule="nonzero"/>
                    <path
                        fill="#D0D0F6"
                        fill-rule="nonzero"
                        d="M27,50 C13.1928813,50 2,38.8071187 2,25 C2,11.1928813 13.1928813,0 27,0 C40.8071187,0 52,11.1928813 52,25 C52,38.8071187 40.8071187,50 27,50 Z"/>
                    <path
                        fill="#FFF"
                        fill-rule="nonzero"
                        d="M27,46 C38.5979797,46 48,36.5979797 48,25 C48,13.4020203 38.5979797,4 27,4 C15.4020203,4 6,13.4020203 6,25 C6,36.5979797 15.4020203,46 27,46 Z"/>
                    <path
                        stroke="#4B4BA9"
                        stroke-linecap="round"
                        stroke-linejoin="round"
                        stroke-width="3.218"
                        d="M26 25L19 18M27 26L42.82 26"/>
                </g>
                <g
                    fill-rule="nonzero"
                    transform="translate(190 106)">
                    <rect
                        width="276"
                        height="13"
                        y="137"
                        fill="#30308A"
                        transform="matrix(1 0 0 -1 0 287)"/>
                    <rect
                        width="276"
                        height="145"
                        fill="#4949A3"
                        rx="2"/>
                    <rect
                        width="265"
                        height="136"
                        x="6"
                        y="4"
                        fill="#EDEDFF"
                        rx="1"/>
                    <g transform="translate(220.026 92.721)">
                        <polygon
                            fill="#30308A"
                            points="23.305 20.755 3.247 20.755 2.546 18.499 2.33 2.256 20.914 0"/>
                        <rect
                            width="20.974"
                            height="19.218"
                            fill="#6EF36F"/>
                    </g>
                    <rect
                        width="11"
                        height="3"
                        x="22"
                        y="137"
                        fill="#4949A3"/>
                    <rect
                        width="11"
                        height="3"
                        x="168"
                        y="137"
                        fill="#6EF36F"/>
                    <rect
                        width="11"
                        height="3"
                        x="182"
                        y="137"
                        fill="#4949A3"/>
                    <rect
                        width="11"
                        height="3"
                        x="227"
                        y="137"
                        fill="#4949A3"/>
                    <rect
                        width="11"
                        height="3"
                        x="219.189"
                        y="135.184"
                        fill="#6EF36F"
                        transform="rotate(-25 224.689 136.684)"/>
                    <path
                        fill="#6464E1"
                        d="M52,134 L64,134 C66.7614237,134 69,136.238576 69,139 L69,140 L47,140 L47,139 C47,136.238576 49.2385763,134 52,134 Z"/>
                </g>
                <g
                    fill-rule="nonzero"
                    transform="matrix(-1 0 0 1 356 118)">
                    <path
                        fill="#A8F8A9"
                        d="M80.340007,54.792 C75.5317351,90.398 81.6692311,93.8320579 81.6692311,129.638058 C83.212944,129.381058 94.4546945,115.587056 97.7100782,115.123015 C100.965462,114.658974 96.91695,96.122 96.91695,96.122 L80.340007,54.792 Z"/>
                    <polygon
                        fill="#4CC24D"
                        points="81.66 125.067 96.296 115.714 83.684 128.008"/>
                    <path
                        fill="#81DB82"
                        d="M80.3084707,54.7417274 L98.0747575,102.754754 C97.9837776,101.085718 97.7620905,99.9574243 97.5075843,98.2688991 C96.3354224,90.4921718 92.3819622,81.6750926 89.775,73.892 L80.3084707,54.7417274 Z"/>
                    <path
                        fill="#30308A"
                        d="M67.247,161 C53.061,159.812 39.717,157.423 25.707,154.472 C24.828,174.863 26.63,188.675 26.63,189.773 L14.2732706,310.671316 L27.415837,311.382543 L42.115,258.195 L53.687,197.369 C53.687,197.369 62.186,204.681 64.188,200.775 C67.622,194.079 65.477,170.495 67.247,161 Z"/>
                    <path
                        fill="#1D1D7A"
                        d="M19.679 307.571C26.408 293.276 23.044 278.138 28.93 263.842 29.77 261.321 33.135 257.955 33.135 256.275 32.294 244.501 31.452 234.411 37.339 222.637 44.068 210.023 33.135 197.409 29.77 183.953 27.17 174.202 32.11 164.955 38.371 156.985 34.183 156.209 29.977 155.369 25.708 154.47 24.829 174.861 26.631 188.673 26.631 189.771L14.6552874 310.610089 18.5466502 310.863834C18.9423293 309.386765 19.3197792 308.289154 19.679 307.571zM67.247 161C64.444 176.033 52.74 199.362 49.941 205.114L51.7456294 311.329724 64.1543311 310.813629 82.774 182.866 82.774 161.945C75.04 162.126 75.01 161.65 67.247 161z"/>
                    <polygon
                        fill="#E5E5E5"
                        points="16.669 310.755 25.244 311.273 24.675 315 16.054 315"/>
                    <path
                        fill="#1D1D7A"
                        d="M58.362,213.388 C57.133,207.243 56.161,200.869 55.744,193.103 C55.744,193.103 51.503,210.476 50.121,216.121 L51.7444337,311.366791 L55.9948572,311.166959 C57.0678572,277.417959 64.359,247.875 58.362,213.388 Z"/>
                    <path
                        fill="#30308A"
                        d="M63.97,157.966 C62.282,167.022 60.643,182.118 56.385,191.54 C56.802,199.306 57.134,207.243 58.363,213.388 C64.36,247.875 56.996,281.695 55.923,315.442 L64.182,315.305 L82.776,182.867 L82.776,157.459 C75.04,157.638 71.732,158.616 63.97,157.966 Z"/>
                    <path
                        fill="#A2A2ED"
                        d="M62.87,33.655 L44.385,34.716 L46.968,42.963 C48.2219907,43.8733161 43.6768201,50.825981 44.9791731,52.8759588 C46.7911768,55.7281558 57.5636224,63.6920281 61.7809562,60.2406918 C62.9248153,59.3045927 64.4875316,53.5288302 63.9819728,49.261659 C63.6459973,46.4258565 61.298,44.393 61.298,44.393 C61.592,43.142 62.205,41.961 62.87,40.77 L62.87,33.655 Z"/>
                    <path
                        fill="#9595E6"
                        d="M64.5757041,49.9890985 L63.7586016,49.7136953 C65.0125923,50.6240114 58.2576343,61.047021 59.5599874,63.0969988 C61.3719911,65.9491958 57.5636224,63.6920281 61.7809562,60.2406918 C63.0503063,59.2018948 63.9818889,55.784697 64.5757041,49.9890985 Z"/>
                    <path
                        fill="#A8F8A9"
                        d="M80.3307767,54.832405 L64.1831467,53.716733 C59.4253853,58.8628934 56.9970402,60.9668925 56.8981115,60.0287305 C56.7497184,58.6214876 46.1607991,48.691 44.8587991,50.292 C41.0227991,55.005 26.626,56.254 22.399,58.573 C29.537,77.361 32.359,98.653 26.574,118.157 L26.79,118.11 C26.79,118.11 25.81,135.466 24.865,156.547 C44.457,160.512 65.494,162.039 82.454,159.621 C88.219,123.206 78.8975721,90.1230936 80.3307767,54.832405 Z"/>
                    <path
                        fill="#81DB82"
                        d="M59.334,143.055217 C62.963,143.992732 69.524,147.901972 69.524,150.716583 C70.233,155.113703 67.057,159.496352 62.607,160.761531 C69.583,160.855593 76.29,160.49175 82.454,159.583178 C83.6946054,151.479765 84.4959355,141.888193 84.3446638,131.98053 C84.0956269,115.669657 82.0357592,98.5257855 80.799,85.9298721 C77.916,92.8273756 69.48,111.37921 72.247,118.827646 C73.928,123.352937 66.593,138.365576 59.334,143.055217 Z"/>
                    <path
                        fill="#FFF"
                        d="M62.87,40.77 C62.205,41.961 61.592,43.142 61.298,44.393 L62.87,44.55 L62.87,40.77 Z"/>
                    <path
                        fill="#9595E6"
                        d="M64.08,29.457 C62.266,25.828 64.988,22.198 65.895,17.662 C67.272,14.909 71.259,12.159 75.481,10.991 C74.489,9.345 73.128,8 71.263,7.222 C61.958,3.346 44.425,11.196 44.425,11.196 C44.425,11.196 43.815794,24.8335751 47.2921071,34.8801682 C47.5455819,35.6127137 45.8924776,35.6245856 45.7905267,36.4496506 C45.5038714,38.7694847 46.1159516,41.8849679 47.2921071,43.4078332 C47.4421013,43.6020429 44.1713691,50.8234164 45.2433481,50.6757062 C46.502568,50.5021956 52.1325767,42.9466668 52.341,43.123 C55.105,45.462 58.723,47.903 62.017,49.248 C61.773,48.717 61.547,48.173 61.358,47.605 C59.544,41.253 68.617,37.624 64.08,29.457 Z"/>
                    <path
                        fill="#A2A2ED"
                        d="M65.896,17.662 C64.989,22.199 62.266,25.828 64.081,29.457 C68.618,37.624 59.545,41.253 61.359,47.604 C61.548,48.172 61.774,48.716 62.018,49.247 C64.937,50.438 67.601,50.77 69.177,49.368 C75.351,43.871 77.445,28.953 77.445,28.953 C77.445,28.953 79.434,17.548 75.482,10.99 C71.26,12.159 67.272,14.908 65.896,17.662 Z"/>
                    <path
                        fill="#30308A"
                        d="M51.741,329.436 L80.4178953,329.436 C80.4178953,329.436 81.1530724,320.898 75.4645983,320.898 C67.7444075,320.898 62.0858727,314.683 62.0858727,314.683 L51.741,314.88 L51.741,329.436 Z"/>
                    <polygon
                        fill="#E5E5E5"
                        points="53.304 310.755 61.244 311.235 61.244 315 52.69 315"
                        transform="matrix(-1 0 0 1 113.934 0)"/>
                    <path
                        fill="#30308A"
                        d="M45.539,40.294 C47.464,34.973 51.89,31.969 51.472,25.614 C51.055,19.259 53.927,14.721 60.92,18.195 C61.935,18.7 69.521,17.583 76.939,14.37 C82.016,12.17 81.523,8.632 81.404,6.444 C81.404,6.444 78.259,8.869 73.57,5.262 C68.878,1.655 71.968,2.769 63.214,2.211 C54.458,1.654 49.08,-2.66 43.892,3.045 C38.704,8.75 36.62,11.158 40.345,27.122 C41.982,34.151 45.539,40.294 45.539,40.294 Z"/>
                    <path
                        fill="#30308A"
                        d="M49.99,6.685 C48.99,6.685 52.99,9.685 51.99,11.685 C48.99,14.685 41.99,12.685 40.99,14.685 C40.344,17.59 39.907,20.39 39.476,23.121 C39.719,24.354 40.007,25.681 40.343,27.122 C41.982,34.151 45.538,40.294 45.538,40.294 C47.463,34.973 51.889,31.969 51.471,25.614 C51.054,19.259 53.926,14.721 60.919,18.195 C61.934,18.7 69.52,17.583 76.938,14.37 C82.015,12.17 81.522,8.632 81.403,6.444 C81.403,6.444 79.995,7.518 77.665,7.162 C69.049,8.881 58.512,5.264 49.99,6.685 Z"/>
                    <path
                        fill="#2B2B7D"
                        d="M63.213,2.21 C54.457,1.653 49.079,-2.661 43.891,3.044 C39.171,8.233 37.022,10.699 39.477,23.12 C39.908,20.39 40.345,17.59 40.991,14.684 C41.991,12.684 48.991,14.684 51.991,11.684 C52.991,9.684 48.991,6.684 49.991,6.684 C58.512,5.264 69.05,8.88 77.666,7.161 C76.509,6.983 75.127,6.459 73.57,5.261 C68.877,1.654 71.968,2.768 63.213,2.21 Z"/>
                    <path
                        fill="#30308A"
                        d="M25.268,325 L0.218162559,325 C0.218162559,325 -0.00645070492,318.35219 6.3165493,318.35219 C8.0275493,318.35219 14.191,314.686646 14.191,314.686646 L26.148,314.658 L25.268,325 Z"/>
                    <path
                        fill="#A8F8A9"
                        d="M22.399,58.574 C22.082,58.748 21.832,58.892 21.679,58.994 C19.49,60.454 10.083,89.64 6.072,98.398 C2.057,107.156 4.885,113.108 8.567,115.249 C12.509,117.543 26.574,118.159 26.574,118.159 C29.5386983,108.16256 31.0218891,97.5935887 30.0431214,87.2365634 C29.112025,77.3839804 25.8789159,67.7330333 22.399,58.574 Z"/>
                    <path
                        fill="#81DB82"
                        d="M28.1167049,107.187148 C27.7676639,125.517935 27.1631434,134.679661 26.3031434,134.672328 C25.0131434,134.661328 12.296,118.376 8.032,114.897 C3.768,111.418 12.8140573,116.020823 17.9560573,115.535823 C22.1667876,115.137843 20.2923099,116.792788 22.2677996,115.535823 C22.7047104,115.257825 21.2973652,108.742284 21.763,108.024 C24.333,104.056 30.8431782,98.5408148 29.678,101.872 C28.9012145,104.09279 28.3807828,105.864506 28.1167049,107.187148 Z"/>
                </g>
                <g
                    fill-rule="nonzero"
                    transform="matrix(-1 0 0 1 117 143)">
                    <path
                        fill="#30308A"
                        d="M50.8008973,157.727178 C43.6527769,156.620112 24.5045663,156.849543 17.8161868,154 C16.1423892,163.248861 15.6886078,174.354487 16.196877,177.91535 C16.7511203,181.805432 29.2577769,314 29.2577769,314 L39.5176624,314 C39.516811,314 52.7675669,172.571924 50.8008973,157.727178 Z"/>
                    <path
                        fill="#1D1D7A"
                        d="M50.7986205,158.142024 C47.3877673,157.618097 41.2738927,157.392089 35.056685,157 C28.7602552,175.97267 36.4826816,196.285977 39.4173415,215.541157 C40.7124496,227.771261 38.7697874,238.713806 31,249.657206 C31,250.300986 34.2377702,251.588546 36.1804324,254.163665 C38.7706485,257.382564 33.5902162,259.313903 34.8853243,262.531946 C35.5328783,263.175726 36.1804324,264.463286 37.4755404,264.463286 C36.8279864,267.037549 37.4755404,268.968888 38.1230945,271.544007 C42.0402798,287.120568 35.8032666,300.776062 32.3648579,315 L39.3854804,315 C39.3854804,314.999144 52.7877825,173.042274 50.7986205,158.142024 Z"/>
                    <path
                        fill="#6EF36F"
                        d="M39.9991464,331 L9,331 C9,331 9.04524052,322.028914 11.1058182,322.028914 C21.4240714,322.028914 29.7133298,314 29.7133298,314 L40,314 L40,331 L39.9991464,331 Z"/>
                    <path
                        fill="#A2A2ED"
                        d="M25.3884733,48 C18.9239059,46.2285015 9.56878257,49.6617445 8.13592335,42.170175 C7.73938191,40.1002827 7.81046817,40.7588068 7.19381627,37.8228867 C7.02423699,37.0108784 5.48945892,29.26979 5.32159257,27.9081541 C4.5987395,22.0603226 4.88479747,16.3796944 8.38515349,13.5689625 C15.0475635,8.22016875 23.3278282,0.80748492 30.2737268,5.47974799 C37.2179124,10.153726 47.9716365,13.1951128 45.687455,24.4208915 C43.405843,35.6466702 40.7019957,46.2019204 40.7019957,46.2019204 C36.3340447,47.780492 25.3884733,48 25.3884733,48 Z"/>
                    <path
                        fill="#30308A"
                        d="M68.16903,156 C54.6299048,159.372125 40.6600945,162.161498 27,160.063079 C28.9818376,174.890888 67.4500777,314 67.4500777,314 L80,314 C80,314 71.7998252,231.640228 67.7469244,186.47948 C66.3399055,170.80225 68.0600719,157.711622 68.16903,156 Z"/>
                    <path
                        fill="#1D1D7A"
                        d="M67.8635556,186.478628 C66.470027,170.80225 68.1737007,157.711622 68.2816142,156 C57.7264848,158.654761 46.9079445,160.937207 36.182023,160.769368 C33.6796195,170.605443 57.7953115,185.551677 58.4342953,189.395797 C60.9902307,200.285768 58.4342953,213.097799 66.7402356,223.347936 C68.6571871,225.910683 68.6571871,229.114116 67.3792194,231.676011 C59.6986676,246.08124 69.2961709,267.549358 71.2131225,274.596912 C73.1292243,282.28345 67.3792194,289.331004 69.9351548,296.376854 C72.2191821,301.532168 75.0053896,307.712409 74.2007118,314 L80,314 C79.9991503,313.999148 71.8784474,231.639376 67.8635556,186.478628 Z"/>
                    <path
                        fill="#6EF36F"
                        d="M80,331 L57.1167409,331 C57.1167409,331 56.2589843,322.028914 59.1935958,322.028914 C61.2704507,322.028914 67.3754063,314 67.3754063,314 L80,314 L80,331 Z"/>
                    <path
                        fill="#FFF"
                        d="M22,47.425191 C25.5281894,48.393565 27.247095,54.9224489 27.247095,56.5780279 L24.1862896,65 L38.6545343,65 L50,57.9856193 C50,57.9856193 42.0837381,49.674543 42.843775,45.4692328 C43.6020904,41.2630493 22,47.425191 22,47.425191 Z"/>
                    <path
                        fill="#9595E6"
                        d="M42.1262899,44.3393322 C42.6553082,44.5730967 42.9160607,44.9385984 42.8201216,45.4689978 C42.0575726,49.6743587 50,57.9855349 50,57.9855349 L38.6170343,65 L26,65 C26.5026838,64.0404941 26.8713271,63.0410327 27.1910893,62.0182939 C26.8776915,62.6908263 26.5414485,63.3519414 26.1809981,64 L24.2413962,64 L26.9954413,55.7744148 C26.649937,53.5476583 25.9570552,49.9444581 22.2093353,47.6245628 C19.862673,47.4736784 17.2647308,47.3472833 16.6354598,47.3002837 C18.8623818,44.1335532 19.8034443,41.1606166 18.331792,37.5094012 C18.331792,36.6519058 12.3103747,29.3966372 11.5507843,26.7907086 C8.21774661,15.3620098 21.3779309,16.6551129 14.7161763,9.12030077 C20.12923,5.12780216 25.9925073,2.05282363 31.1324886,5.47937528 C38.1390402,10.1535827 48.9893438,13.1951189 46.684648,24.4205913 C44.9643778,32.8089403 43.0062148,40.823807 42.1262899,44.3393322 Z"/>
                    <path
                        fill="#A8F8A9"
                        d="M42.7582865,46 C29.7039381,40.8471501 34.2533871,32.5046836 29.4188529,28.512776 C26.8445763,26.3880647 21.1998896,27.8923603 18.4758369,23.0004249 C15.9228352,18.4152979 9.15738085,17.7387898 6.46821912,16.7903187 C-6.30104412,12.298679 3.77650438,0 3.77650438,0 C3.77650438,0 12.1801348,4.08879446 16.3934385,2.6473903 C28.0878881,-1.34961663 29.1584468,3.62475751 33.4781256,4.61402309 C40.375485,6.19225866 50.4734575,6.42852656 51.8716514,18.7051085 C53.2715473,30.9825404 42.7582865,46 42.7582865,46 Z"/>
                    <path
                        fill="#81DB82"
                        d="M51.8689643,18.8386312 C50.498839,7.11431754 40.9505344,6.42505002 33.9582909,5 C39.3910069,12.1954455 25.972989,10.8422822 27.063355,12.965057 C27.3309508,19.4847666 29.0442589,21.4045669 31.6507115,21.4045669 C44.3641184,20.9225025 37.7333031,26.3698302 34.9565622,35.4055777 C34.8357966,39.2688587 35.6594356,43.3444172 42.5647973,46 C42.5647973,46 53.2981691,31.0560036 51.8689643,18.8386312 Z"/>
                    <path
                        fill="#30308A"
                        d="M64.3302699,126.377154 C66.3320502,103.012377 58.4162322,56.8300462 56.4523514,55.4371888 C56.2034209,55.2601958 52.2971929,51.9836889 45.2590918,50 C36.5404945,59.123259 26.9133005,63.3843856 26.9133005,55.6890406 C26.5704827,55.6890406 24.9802993,56.5607091 24.808029,56.8052501 C19.6071902,64.2338231 15.7242187,78.4565308 14.6173824,83.4952716 C13.1039882,90.3877356 14.6053234,128.023958 16.6139946,146.013964 C18.1394476,159.672347 14.7233286,167.760154 14.8292748,168.508313 C32.7117881,178.987663 37.333799,168.533109 58.0940869,163.364402 C58.1027004,163.239567 68.2278843,170.256866 68.2692292,170.151697 C74.1936031,155.926424 62.890952,143.181222 64.3302699,126.377154 Z"/>
                    <path
                        fill="#1D1D7A"
                        d="M64.3570502,126.295037 C66.1721699,110.039359 61.2808338,85.6579443 58.200788,69 C53.3319989,80.3895954 44.505828,89.8593181 40.3116506,101.859588 C40.3116506,103.565384 47.1259111,104.418281 48.8294763,106.976974 C52.2366065,112.09436 44.5705635,115.505951 45.422346,121.476235 C47.1259111,129.152313 55.0313051,129.690492 56.7348702,136.513673 C53.32774,137.366571 53.3337025,151.969885 47.4998437,158.355529 C45.0611902,161.025952 30.8875284,169.618896 26,172.888906 C35.5399647,173.944793 41.9896623,167.222254 57.2263488,163.396155 C57.2348666,163.271632 67.2475706,170.271363 67.2884562,170.166456 C73.1470167,155.977651 62.5122997,142.816078 64.3570502,126.295037 Z"/>
                    <path
                        fill="#A2A2ED"
                        d="M51.442952,85.4810678 L69.9008116,120.533818 C69.9008116,120.533818 70.7593761,121.757162 69.9178297,123.648711 C64.4992584,135.816688 49,172.65472 49,172.65472 L56.3935249,176 C56.3935249,176 75.4444662,140.249289 84.955046,125.927922 C86.0935586,124.214051 86.370954,119.550212 85.4417644,117.715622 C78.888084,104.772322 66.346576,74 66.346576,74"/>
                    <path
                        fill="#9595E6"
                        d="M86.434843,117.715622 C79.7999064,104.772322 67.1029016,74 67.1029016,74 L57.1634184,81.5627974 C64.5374846,101.811303 79.0848976,113.758245 80.5131922,120.095999 C82.2361049,127.74721 58.297095,165.087672 53,174.201115 L57.0264469,176 C57.0264469,176 76.3135926,140.249289 85.94209,125.927922 C87.0947186,124.214051 87.3755533,119.550212 86.434843,117.715622 Z"/>
                    <path
                        fill="#A2A2ED"
                        d="M55.7592752,56 C48.6479724,58.5180715 44.2191544,61.8201111 37.4952545,59.3250474 L37,83.3315146 L53.7808456,102.831017 C72.6660915,104.435596 78,94.0846599 78,94.0846599 C78,94.0846599 66.5729077,64.6049022 55.7592752,56 Z"/>
                    <path
                        fill="#30308A"
                        d="M64.5617885,72.254023 C63.9973744,68.3673396 61.9625358,64.4798041 60.1323082,60.3587778 C58.7113025,58.6246404 57.3673454,56.9218467 55.9420047,55.7918879 C48.7962274,58.3100088 43.9813011,61.6121862 37.2248048,59.1170735 L36.7305759,83.2090319 L53.7380561,102.82287 C57.8086002,103.167141 61.3729788,102.966576 64.2730789,102.43057 C64.3675815,102.312121 64.4759559,102.205601 64.5626555,102.079482 C74.0987395,93.5579223 65.428784,81.6277387 64.5617885,72.254023 Z"/>
                    <path
                        fill="#1D1D7A"
                        d="M78.1111932 93.9923224C78.1111932 93.7638938 69.3653902 71.4623564 60 60 61.8234955 64.113994 63.8508494 67.9948958 64.4131874 71.8749468 65.276994 81.232667 73.915059 93.1424926 64.4131874 101.649511 64.3268068 101.775415 64.0236054 102.361201 63.9294505 102.479449 74.5058974 100.520282 78.1111932 94.2207509 78.1111932 93.9923224zM47.7145204 169C51.0593734 172.343448 55.4477933 176.104934 59 175.686897L53.9334315 183 44 176.131274 47.7145204 169z"/>
                </g>
                <g
                    fill-rule="nonzero"
                    transform="translate(220 297)">
                    <rect
                        width="338"
                        height="14"
                        y="17"
                        fill="#A2A2ED"/>
                    <rect
                        width="113"
                        height="14"
                        y="17"
                        fill="#30308A"/>
                    <rect
                        width="338"
                        height="2"
                        y="17"
                        fill="#E0E0F9"/>
                    <polygon
                        fill="#30308A"
                        points="18.095 164 9 164 32.905 25 42 25"/>
                    <polygon
                        fill="#30308A"
                        points="70.095 164 61 164 84.905 25 94 25"/>
                    <polygon
                        fill="#A2A2ED"
                        points="73.095 164 64 164 87.905 25 97 25"/>
                    <polygon
                        fill="#A2A2ED"
                        points="294.905 164 304 164 280.095 25 271 25"/>
                    <g transform="matrix(-1 0 0 1 152 0)">
                        <path
                            fill="#E0E0F9"
                            d="M19.2993939,0 C17.8894545,4.3227792 20.6676364,9.06243806 18.0775758,11.5702885 C15.5146667,14.6715351 10.8368485,16.5296542 6,16.3615878 L6,18 L22,18 L22,0 L19.2993939,0 Z"/>
                        <path
                            fill="#FFF"
                            d="M18.7341772,12.0139508 C21.4175206,9.40993696 18.5392807,4.48853603 20,0 L6.22161945,0 L6.22161945,2.00541238 C2.68032952,2.6810326 0,5.71303674 0,9.34559218 C0,12.9771727 2.68032952,16.0101518 6.22161945,16.684797 L6.22161945,16.9889724 C11.2326703,17.1644582 16.0789632,15.2341147 18.7341772,12.0139508 Z M6.22161945,14.2816169 C4.0124573,13.6527929 2.38497087,11.690277 2.38497087,9.34559218 C2.38497087,6.99993238 4.0124573,5.03839144 6.22161945,4.40859251 L6.22161945,14.2816169 Z"/>
                    </g>
                </g>
                <g
                    fill-rule="nonzero"
                    transform="translate(369 159)">
                    <path
                        fill="#1D1D7A"
                        d="M32.1139916,135.148507 C25.451267,143.230287 50.8518585,199 50.8518585,199 C55.5287397,189.562547 60.5676345,154.789573 68.6271459,148.530688 C80.0546394,140.918221 112.566811,129.55753 109.838107,124 C107.153347,124.071076 36.4372295,129.903504 32.1139916,135.148507 Z"/>
                    <path
                        fill="#1D1D7A"
                        d="M109.838622,124 C109.141928,124.019026 103.84893,124.433359 96.3292224,125.126732 C79.3832855,132.343739 58.2425826,127.032454 43.5598586,137.260774 C27.2376089,149.450836 40.6354121,175.980841 52.8609335,195 C57.0421411,181.725485 61.7573418,154.31925 68.7576574,148.805026 C80.1498576,141.107097 112.558649,129.618865 109.838622,124 Z"/>
                    <path
                        fill="#30308A"
                        d="M34.6165016 137.313094C49.2826638 127.17955 79.0754217 132.147918 96 125 74.649218 126.95657 35.292568 131.162828 32.1091181 135.049796 25.4755418 143.14407 50.7650098 199 50.7650098 199 51.36399 197.78565 51.9681788 196.143136 52.5848681 194.20541 40.3729625 175.368323 31.488262 138.836266 34.6165016 137.313094zM66.2914194 192L62 205.869482C62 205.869482 62.9201121 213.584877 65.3378867 216.728105 65.7086469 217.210928 66.6945559 218.486881 68.4376513 218.876394 71.6147011 219.59032 75.3515467 217.121958 74.9734757 213.784516 74.5306522 209.874196 73.975034 206.556284 73.1530951 202.839093 72.01366 197.68971 66.2914194 192 66.2914194 192z"/>
                    <path
                        fill="#30308A"
                        d="M132.801663,129.025897 C125.981337,128.724351 112.845507,130.571454 112.340684,128.040355 C106.061686,127.902715 99.7806029,128.085534 93.5005623,129.084735 C79.2601714,131.955206 65.9689313,137.634156 54.5759927,145.282089 C46.5426308,151.577791 45,238.696352 45,238.696352 L54.0982883,239 C57.2242278,239 74.3652652,158.261195 74.3652652,158.261195 L125.248092,157.031894 C137.646504,157.032945 135.779493,133.838032 132.801663,129.025897 Z"/>
                    <path
                        fill="#30308A"
                        d="M70.253557,149.319139 C84.8999715,146.166727 100.592558,153.522355 114.1928,147.217531 C120.901904,144.691398 120.215615,136.760981 119.679975,129.384338 C115.818552,129.451589 112.78256,129.228819 112.544033,128.040359 C106.246074,127.902704 99.9460238,128.085544 93.6470194,129.084859 C79.3636268,131.955655 66.0322511,137.63525 54.6049094,145.284052 C46.5472891,151.580469 45,238.708927 45,238.708927 L53.7606482,239 C58.5751338,211.151594 61.0618858,183.055199 67.1150396,153.521304 C67.1150396,152.471551 69.2073846,149.319139 70.253557,149.319139 Z"/>
                    <path
                        fill="#1D1D7A"
                        d="M131.808787,130.034432 C128.204454,129.874743 122.833821,130.318089 118.505919,130.393731 C119.0382,137.768824 119.720185,145.696523 113.053157,148.223175 C99.5382075,154.526672 83.9440355,147.172592 69.3894749,150.32434 C68.3498634,150.32434 66.2706404,153.476089 66.2706404,154.526672 C60.2544089,184.053306 57.784292,212.144844 53,239.987393 L53.363864,240 C56.4795796,240 73.5645545,159.269004 73.5645545,159.269004 L124.280961,158.039822 C136.637783,158.038771 134.776878,134.846102 131.808787,130.034432 Z"/>
                    <path
                        fill="#FFF"
                        d="M112.648608,44 C112.648608,44 98.756461,47.0113191 96.1032577,50.4048766 C83.3586681,66.717247 49,108.059354 49,108.059354 L55.6612783,115 L111.516756,72.1299978 C111.859139,59.412363 113.776272,56.7133994 112.648608,44 Z"/>
                    <path
                        fill="#E6E6F2"
                        d="M96.6243528,67.0299538 C81.4621749,80.84999 67.3041079,96.1869103 51,108.10275 L55.717974,113 L110.99692,70.7318611 C111.172044,64.233166 103.818926,64.9409757 104.196116,61 C98.2222258,63.4982132 101.121609,63.2539249 96.6243528,67.0299538 Z"/>
                    <path
                        fill="#FFF"
                        d="M112.674264 57.4256691C113.027126 53.7672498 113.192562 50.0275324 112.650181 44 112.650181 44 98.7576908 46.9642577 96.1044219 50.3047801 83.3595173 66.362218 49 107.058224 49 107.058224L50.895192 109C67.3697508 97.1033626 81.6758329 81.7911582 96.9965234 67.9933935 101.539749 64.2224075 106.63792 59.918814 112.674264 57.4256691zM179.760277 156C179.760277 156 197.570474 156 204.392603 156 205.062671 156 206.455156 154.526477 205.852095 154.238451 201.989781 152.399679 196.110982 150.329233 193.039139 150.288534 190.946224 150.260357 184.609894 149.281487 184.609894 149.281487 184.609894 149.281487 160.616227 74.9990303 145.86531 53.8823627 143.54834 50.5679799 133.880516 43 133.880516 43 125.972668 53.974197 121.10944 68.8670047 123.700719 83.0689681 124.550867 90.6891265 131.453614 95.2912765 137.669541 100.238849L137.678964 77.6945753 179.760277 156z"/>
                    <path
                        fill="#E6E6F2"
                        d="M183.796869,149.86665 C165.105557,126.280711 153.300738,98.7623841 139.526702,71.2451057 C136.512549,66.726843 130.033118,66.8253623 123.629225,67.117776 C122.806706,72.2743179 122.751102,77.5597735 123.697418,82.7550943 C124.549312,90.4081572 131.466231,95.0301796 137.69492,99.9991157 L137.704362,77.3574945 L179.872071,156 C179.872071,156 190.069621,156 198,156 C192.095493,155.469673 186.927475,153.889172 183.796869,149.86665 Z"/>
                    <polygon
                        fill="#8A8ABF"
                        points="69 132 23.845 132 0 89 44.036 89"/>
                    <polygon
                        fill="#FFF"
                        points="45.65 88 44 88.943 68.745 132 71 132"/>
                    <path
                        fill="#FFF"
                        d="M125,42.4783757 L115.937716,27 L104,36.929464 C109.52709,48.7478289 106.169443,64.057477 107.858772,76 C113.121117,63.2403682 113.792436,50.4828587 125,42.4783757 Z"/>
                    <path
                        fill="#FFF"
                        d="M108.73784,32 L104,36.293482 C109.027385,48.0017359 105.973303,63.1687448 107.5099,75 C110.175054,67.9636937 111.546333,60.9284387 113.995523,54.7047822 C114.091082,46.8085179 112.667246,38.9522028 108.73784,32 Z"/>
                    <path
                        fill="#E6E6F2"
                        d="M125,42.3811708 L116.384643,27 L109.988544,32.560463 C114.094472,39.5339775 110.426003,56.8860387 108,70 C110.038482,65.0269024 120.275836,45.9074723 125,42.3811708 Z"/>
                    <path
                        fill="#A2A2ED"
                        d="M137.998997,117.751818 C137.948711,112.66074 137.998997,77.5262122 137.998997,77.5262122 C137.998997,77.3894372 141.138364,76.8918364 146.567963,74.1651366 C148.08874,73.4014151 150.707581,71.7158754 154.424488,69.1085178 C151.45914,62.4237635 148.840298,57.5938193 146.567963,54.6186853 C143.560313,50.6808154 138.323593,46.0044958 130.857802,40.5897266 C119.681711,48.5109312 114.219945,53.9180192 108.971331,66.5491008 C107.083506,56.8500095 106.181498,57.7499794 107.627225,44.7481984 L101.659938,46.3402103 C101.703535,46.8262443 99.1652793,47.1308019 96.8476025,49.3588288 C93.6331979,52.4488971 89.5629378,57.4951607 84.6368222,64.4976195 C91.6686416,67.2173691 94.6242327,69.5296207 93.5035956,71.4343741 C92.3184867,73.4487104 91.2680038,75.7488304 90.1423196,77.5262122 C83.8261727,87.5025404 95.6025548,90.1005862 95.1845513,93.171195 C94.4491168,98.563663 97.8203824,114.723214 94.2333055,116.861299 C95.5030301,116.104148 86,125.65412 86,125.65412 C86,125.65412 114.891474,162.54028 137.727661,152.157548 C135.042592,147.840423 138.062902,124.097812 137.998997,117.751818 Z"/>
                    <path
                        fill="#9595E6"
                        d="M92.8005182 68.4053178L94.7957592 60.0988613 96.4706145 53.8936891C96.5142118 54.3797231 93.6580127 54.7111802 91.3403359 56.939207 88.1259313 60.0292754 85.8914267 62.5487462 84.6368222 64.4976195L92.8005182 68.4053178zM137.999017 77.553579C135.142723 77.1137506 133.005808 75.43469 131.532037 73 127.843896 83.0014062 120.068667 90.5816717 109 94.9309702 113.97411 97.8628122 121.13288 103.721285 123.122312 107.629713 125.111744 114.471025 115.270689 120.732847 117.261181 127.575202 121.481959 138.63032 122.91435 141.965512 113.287623 149.637495 121.209275 153.735612 129.82484 155.69191 137.72421 152.172241 135.004789 147.887562 138.062678 124.322347 137.999017 118.024046 137.948087 112.971231 137.999017 77.553579 137.999017 77.553579z"/>
                    <polygon
                        fill="#FFF"
                        points="101 125 69 130.396 69.908 132 101 126.679"/>
                    <polygon
                        fill="#8A8ABF"
                        points="102 125 67 125 69.935 130"/>
                    <polygon
                        fill="#FFF"
                        points="1.854 88 45 88 43.415 88.69 0 88.69"/>
                    <path
                        fill="#FFF"
                        d="M113.510511,12.2939445 C115.047198,20.6041022 116.817477,29.1703658 110.806907,35.3264711 C107.084083,39.1351163 107.341768,42.1339993 100.104573,42.9915821 C97.6523693,43.2795684 90.3020435,36.167051 85.4625815,23.3883238 C80.622072,10.6095967 88.5768067,11.063361 97.9016749,7.43112074 C107.226543,3.79569241 112.659939,7.69997878 113.510511,12.2939445 Z"/>
                    <path
                        fill="#FFF"
                        d="M91.7808974,14.4203182 C90.7254545,12.8577775 89.4024934,11.2962689 87.8151491,10 C84.1817087,11.8298445 82.6319841,14.6907183 85.457645,21.9533331 C90.2844675,34.3638693 97.618228,41.2724871 100.064557,40.9917665 C101.732365,40.797739 102.988447,40.4922488 104,40.0928411 C101.04476,34.7354113 95.4634526,30.9818047 92.8269353,25.7729917 C90.7359045,22.676808 93.8708833,17.5165019 91.7808974,14.4203182 Z"/>
                    <path
                        fill="#E6E6F2"
                        d="M114.479388,12.2819044 C113.611168,7.69732386 108.06504,3.80011216 98.5477694,7.42789224 C94.6001495,8.932042 90.8973847,9.73609384 88.2627868,11.0705229 C89.8869565,12.4028304 87.1828583,20.0911784 88.2627868,21.6971606 C90.4012591,24.8794238 92.6199241,24.4667903 95.8725405,33.5659417 C98.5702233,38.9195692 101.799317,36.4936239 104.823116,42 C108.268195,40.6369306 108.799606,38.1961347 111.721828,35.2726955 C117.854967,29.1266845 116.047958,20.5770039 114.479388,12.2819044 Z"/>
                    <path
                        fill="#30308A"
                        d="M127.7362,99.2177371 C122.82678,94.1168174 131.745766,85.956587 131.574267,80.7874069 C131.227136,70.4231903 136.598364,56.5104629 134.520746,48.4526232 C133.396703,44.0911921 136.381408,43.7157594 124.518009,26.2586582 C118.719066,17.7240294 114.428489,28.6519121 114.428489,28.6519121 C121.986847,31.2985571 115.636215,49.1528103 113.224896,58.4569209 C111.815711,63.895006 116.223031,67.5717638 115.753991,73.5124942 C115.421324,77.7363701 108.814476,79.6962734 110.187502,86.3433964 C111.282617,91.6501318 117.233429,103.081694 127.7362,99.2177371 Z"/>
                    <path
                        fill="#30308A"
                        d="M127.521122,62.1311209 C129.65349,57.9835405 127.521122,53.83596 125.388755,48.6514845 C122.810722,43.6370598 126.467733,38.999028 130,33.8249215 C128.705653,31.7303934 127.071193,29.2522141 124.982539,26.2669931 C118.998048,17.7105347 114.570187,28.6663683 114.570187,28.6663683 C122.370388,31.3197829 115.816556,49.2197031 113.328082,58.5476114 C111.873807,63.9996058 116.422148,67.6857679 115.938101,73.6416934 C115.594789,77.876373 108.776543,79.8412892 110.193502,86.505414 C110.950492,90.0692225 113.960329,96.3818399 119.119593,99 C123.866244,90.5472311 124.322571,79.5281469 124.322571,69.3883497 C124.322571,67.3155964 127.521122,64.2049111 127.521122,62.1311209 Z"/>
                    <path
                        fill="#2B2B7D"
                        d="M134.525208,48.8323493 C133.602817,45.1729355 135.469073,44.27483 129.435697,34 C126.047802,39.2232479 122.540263,43.9053297 125.012925,48.9673791 C127.058137,54.2010945 129.10335,58.3880668 127.058137,62.575039 C127.058137,64.6685252 123.990318,67.8087544 123.990318,69.9022405 C123.990318,80.138341 123.552643,91.2620796 119,99.7951291 C121.438916,101.099371 124.376864,101.502367 127.809753,100.209639 C122.950328,95.0471025 131.778487,86.7882997 131.608735,81.5566779 C131.266162,71.0672656 136.582692,56.9875245 134.525208,48.8323493 Z"/>
                    <path
                        fill="#30308A"
                        d="M86.9987082,27.3337296 C80.9081642,23.1241401 76.4904784,2.84815735 89.0306342,7.60619392 C89.3132824,7.71381372 111.302261,-9.88202227 121.623105,8.09151779 C127.150447,17.7224544 124.72072,31.7771853 122.55061,31.9934597 C120.381547,32.2076644 118.633316,27.076063 114.48781,28.9552702 C111.021706,30.5281748 109.851334,23.577385 105.015957,21.2407937 C102.170632,19.8645022 98.1245765,23.4987397 95.2143474,22.5063611 C92.2821347,21.5077736 91.2541329,21.0224497 88.5626945,21.7199088 C86.0492198,22.3718363 86.9987082,27.3337296 86.9987082,27.3337296 Z"/>
                    <path
                        fill="#6EF36F"
                        d="M109,24 C106.554468,18.1164202 99.5202001,6.73971646 94.0954866,6.05294224 C93.2207757,5.94168909 89,6.79855225 89,6.79855225 C89,6.79855225 89.9145193,1.59211903 98.342084,3.37002986 C108.241487,5.45923555 109,24 109,24 Z"/>
                    <path
                        fill="#FFF"
                        d="M55,236 L52.8686131,245 L45,245 L45,237.218201 C45,237.218201 46.5571776,238.536711 49.4155718,238.186143 C53.729927,237.653568 55,236 55,236 Z"/>
                    <path
                        fill="#30308A"
                        d="M57.9103397,252.818816 C53.920893,256.699808 45.709837,264.054964 39.0031522,265.948638 C37.2707829,266.438704 33.8445644,263.294373 35.3905791,261.937586 C43.1393923,255.152614 44.3147799,242.349503 44.3147799,242.349503 C44.3147799,242.349503 48.1012146,244.889316 53.8719618,241 C53.8719618,241 55.0119525,245.52817 58.1008587,247.426007 C59.2512602,248.132493 59.4115877,251.356941 57.9103397,252.818816 Z"/>
                </g>
                <g transform="translate(114 226)">
                    <path
                        fill="#A2A2ED"
                        fill-rule="nonzero"
                        d="M118.374,152.255 L96.193,240.193 C96.193,240.193 105.254,241.089 107.047,240.193 C108.839,239.297 136.319,160.125 136.319,160.125 L118.374,152.255 Z"/>
                    <path
                        fill="#30308A"
                        fill-rule="nonzero"
                        d="M128.953,156.894 C129.09,160.053 129.127,163.195 128.64,166.595 C123.503,193.015 105.909,215.281 103.205,240.590703 C104.907,240.6 106.42,240.505 107.046,240.193 C108.838,239.297 136.318,160.125 136.318,160.125 L128.953,156.894 Z"/>
                    <path
                        fill="#1D1D7A"
                        fill-rule="nonzero"
                        d="M128.953,156.894 L118.374,152.255 L96.193,240.193 C96.193,240.193 100.031,240.573 103.206,240.59 C105.909,215.28 123.504,193.015 128.641,166.595 C129.127,163.194 129.09,160.053 128.953,156.894 Z"/>
                    <path
                        fill="#A2A2ED"
                        fill-rule="nonzero"
                        d="M153.692,240.192 L150.092,153.468 C150.092,153.468 149.634,146.295 132.734,140.406 C125.417,137.856 106.628,127.191 95.13,125.263 C84.286,135.247 72.779,146.32 59.734,152.179 C59.865,152.203 59.983,152.228 60.118,152.253 C66.721,153.49 109.095,167.29 121.063,167.036 C129.502,168.366 131.877,170.104 131.877,170.104 L142.837,240.363 L153.692,240.192 Z"/>
                    <path
                        fill="#1D1D7A"
                        fill-rule="nonzero"
                        d="M134.992,156.614 C113.99,157.292 94.507,150.885 76.162,141.932 C70.934,146 65.484,149.597 59.734,152.18 C59.865,152.204 59.983,152.229 60.118,152.254 C66.721,153.491 109.095,167.291 121.063,167.037 C129.502,168.367 131.877,170.105 131.877,170.105 L142.837,240.364 L142.981,240.361 C139.756,211.842 145.688,183.353 134.992,156.614 Z"/>
                    <path
                        fill="#30308A"
                        fill-rule="nonzero"
                        d="M150.093 153.469C150.093 153.469 149.635 146.296 132.735 140.407 125.418 137.857 106.629 127.192 95.131 125.264 89.068 130.848 82.795 136.77 76.163 141.932 94.508 150.885 113.991 157.291 134.993 156.614 145.688 183.352 139.757 211.842 142.982 240.362L153.693 240.192 150.093 153.469zM95.13 252.46L111.9 252.46C111.9 252.46 117.037 245.011 111.067 245.011 109.702 245.011 106.9 240.257 106.9 240.257L96.194 240.193 95.13 252.46z"/>
                    <path
                        fill="#30308A"
                        fill-rule="nonzero"
                        d="M142.838,252.46 L169.111,252.46 C169.111,252.46 171.334,246.024 165.365,246.024 C164,246.024 153.692,239.586 153.692,239.586 L142.838,239.759 L142.838,252.46 Z"/>
                    <polygon
                        fill="#30308A"
                        fill-rule="nonzero"
                        points="75.879 252.46 81.737 252.46 67.718 173.123 61.858 173.123"/>
                    <polygon
                        fill="#30308A"
                        fill-rule="nonzero"
                        points="27.782 252.46 21.924 252.46 35.944 173.123 41.803 173.123"/>
                    <polygon
                        fill="#30308A"
                        fill-rule="nonzero"
                        points="122.024 252.46 127.885 252.46 113.864 173.123 108.007 173.123"/>
                    <path
                        fill="#4CC24D"
                        fill-rule="nonzero"
                        d="M28.221,94.006 C26.705,89.461 25.116,84.989 23.402,80.605 C21.866,89.602 21.69,99.173 24.419,105.543 C29.797,118.09 57.429,133.434 54.74,140.604 C52.077,147.708 51.561,157.733 65.389,160.381 C77.484,154.949 95.319,152.527 105.698,132.776 C97.238042,127.039709 95.7107793,129.006239 86.9917793,126.099239 C68.8437793,117.932239 35.479,113.968 28.221,94.006 Z"/>
                    <path
                        fill="#6EF36F"
                        fill-rule="nonzero"
                        d="M86.821,117.114 C86.821,117.114 76.212,79.358 68.52,64.798 C65.494,59.069 58.532,58.501 56.892,57.954 C54.204,57.058 30.307,59.491 30.307,59.491 C27.66,63.687 24.89,71.876 23.401,80.604 C25.115,84.989 26.705,89.46 28.22,94.005 C35.479,113.967 59.071,116.69 77.217,124.856 C85.937,127.762 96.982,127.765 105.696,132.774 C106.512,131.221 107.288,129.574 108.006,127.795 C102.163,126.817 86.821,117.114 86.821,117.114 Z"/>
                    <path
                        fill="#30308A"
                        fill-rule="nonzero"
                        d="M134.629,164.603 C108.007,164.603 71.798,150.227 71.798,126.798 C71.798,103.37 54.705,81.988 36.123,77.278 C20.057,73.206 7.222,73.066 1.94,79.409 C-3.289,85.69 6.837,97.513 6.837,109.759 C6.837,122.007 -0.087,173.123 33.99,173.123 C68.069,173.123 130.369,173.123 130.369,173.123 L134.629,164.603 Z"/>
                    <path
                        fill="#FFF"
                        fill-rule="nonzero"
                        d="M92.224,109.067 C90.539,109.07 89.59,108.065 90.105,106.823 L104.004,73.235 C104.519,71.991 106.302,70.982 107.987,70.979 L134.667,70.938 C136.352,70.935 137.3,71.94 136.786,73.184 L122.884,106.77 C122.371,108.014 120.587,109.022 118.903,109.026 L92.224,109.067 Z"/>
                    <path
                        fill="#D0D0F6"
                        fill-rule="nonzero"
                        d="M92.224,109.067 C90.539,109.07 89.59,108.065 90.105,106.823 L104.004,73.235 C104.519,71.991 106.302,70.982 107.987,70.979 L134.667,70.938 C136.352,70.935 137.3,71.94 136.786,73.184 L122.884,106.77 C122.371,108.014 120.587,109.022 118.903,109.026 L92.224,109.067 Z"/>
                    <path
                        fill="#B4B4D1"
                        fill-rule="nonzero"
                        d="M136.458,71.519 C136.513,71.799 136.483,72.107 136.349,72.435 L122.447,106.021 C121.934,107.265 120.15,108.273 118.466,108.277 L91.787,108.318 C91.002,108.32 90.387,108.096 89.995,107.738 C90.145,108.523 90.982,109.07 92.224,109.068 L118.903,109.027 C120.588,109.023 122.372,108.015 122.884,106.771 L136.786,73.185 C137.061,72.52 136.908,71.93 136.458,71.519 Z"/>
                    <path
                        fill="#FFF"
                        fill-rule="nonzero"
                        d="M92.216,107.253 C92.091,107.253 91.986,107.243 91.902,107.23 L105.681,73.929 C105.869,73.474 106.922,72.796 107.99,72.794 L134.67,72.753 C134.799,72.753 134.905,72.763 134.99,72.777 L121.209,106.077 C121.02,106.533 119.968,107.21 118.9,107.212 L92.216,107.253 Z"/>
                    <path
                        fill="#D0D0F6"
                        d="M10.7459042,2.47853669 C10.2643446,2.48856385 9.86890576,2.5855151 9.55969535,2.76985574 C9.25103683,2.95464134 8.96776807,3.1739765 8.70980483,3.42803202 C8.45982921,3.14119578 8.16022174,2.92281238 7.8114321,2.77270989 C7.46216897,2.6222782 7.03357617,2.5516261 6.52631891,2.56085711 C6.05773358,2.56922158 5.67707651,2.65865022 5.38443481,2.82955593 C5.09230066,3.00084405 4.82754333,3.20343568 4.59009207,3.43746423 L4.53312205,3.4385727 L4.21155771,2.73372328 L2.49994936,2.76144312 L3.85172782,8.31288057 L5.89105972,8.24106986 L5.03873531,4.50759443 C5.38825199,4.14329667 5.74360903,3.95765334 6.10423938,3.9496406 C6.40809597,3.94281961 6.64643482,4.01119881 6.81891095,4.15476736 C6.99106908,4.29825241 7.12317686,4.56815719 7.21465091,4.96491364 L7.90900834,8.16745325 L9.96124124,8.08999994 L9.19194357,4.40467102 C9.57081392,4.04346405 9.93734048,3.8589577 10.2909207,3.85008857 C10.5968853,3.84234559 10.835234,3.90903394 11.0056013,4.05015169 C11.1756232,4.19119792 11.3024393,4.45717696 11.3853774,4.84855933 L12,7.97773461 C11.1136109,9.12570955 9.56008918,9.91290337 7.67775431,9.99383985 C4.45254263,10.1276083 1.34488822,8.06636506 0.688967805,5.41076354 C-0.00383886857,2.77129524 2.13589633,0.624819989 5.51995116,0.593842135 C7.60904077,0.570412661 9.65403717,1.31983886 11.0490738,2.48268119 C10.9509204,2.47773317 10.8498615,2.47635083 10.7459042,2.47853669 Z"
                        transform="matrix(-1 0 0 1 121 81)"/>
                    <path
                        fill="#6EF36F"
                        fill-rule="nonzero"
                        d="M124.471,94.214 L124.048,90.939 L94.116,97.005 L68.52,64.798 C68.52,64.798 60.333,84.849 67.307,99.429 C67.639,100.185 68.353,100.972 69.342,101.763 C78.923,102.195 88.505,103.988 98.087,103.988 C107.669,104.785 115.846,99.261 124.471,94.214 Z"/>
                    <path
                        fill="#4CC24D"
                        fill-rule="nonzero"
                        d="M95.8876937,103.642634 C86.3066937,103.642634 78.923,102.194 69.342,101.763 C74.487,105.878 87.153,110.094 93.005,110.687 C101.435,111.539 124.75,96.374 124.75,96.374 L124.47,94.214 C115.846,99.261 105.468694,104.441634 95.8876937,103.642634 Z"/>
                    <g
                        fill-rule="nonzero"
                        transform="rotate(-12 61.786 -71.415)">
                        <path
                            fill="#9595E6"
                            d="M49.734,23.958 C48.755,38.511 37.496,48.683 35.858,48.858 C34.331,49.02 31.74,48.751 31.438,48.426 C30.732,47.667 33.637,55.361 31.076,56.418 C25.241,58.827 19.031,53.507 17.073,51.897 C11.348,47.19 10.023,30.965 10.023,24.223 C10.023,11.836 19.367,1.797 30.892,1.797 C42.417,1.797 50.566,11.601 49.734,23.958 Z"/>
                        <path
                            fill="#A2A2ED"
                            d="M41.237,29.12 C43.519,26.837 46.519,24.197 49.787,22.099 C49.724,10.631 41.833,1.797 30.892,1.797 C19.367,1.797 10.023,11.836 10.023,24.223 C10.023,30.965 11.348,47.19 17.073,51.897 C18.929,53.423 24.605,58.271 30.161,56.721 C30.031,52.965 29.817,49.208 29.441,45.451 C31.256,46.36 38.446,40.009 41.237,29.12 Z"/>
                        <path
                            fill="#30308A"
                            d="M40.513,2.709 C45.798,1.798 47.492,5.222 49.375,6.606 C54.881,10.655 52.45,18.323 50.643,21.63 C49.357,23.984 46.07,27.877 42.974,29.139 C38.504,30.961 40.367,27.684 33.735,33.266 C27.104,38.846 30.893,52.954 24.903,63.159 C21.232,69.411 11.837,75.256 5.593,66.438 C-0.648,57.62 -0.722,56.493 5.593,46.459 C10.716,38.324 5.337,35.802 4.564,27.604 C2.714,7.981 13.054,1.021 19.417,1.797 C26.93,2.714 33.734,-2.455 40.513,2.709 Z"/>
                        <path
                            fill="#2B2B7D"
                            d="M46.876,4.304 C45.482,3.138 43.62,2.173 40.513,2.709 C33.735,-2.455 26.93,2.714 19.416,1.798 C13.054,1.022 2.714,7.982 4.563,27.605 C5.336,35.803 10.715,38.326 5.592,46.46 C-0.723,56.493 -0.649,57.62 5.592,66.439 C6.196,67.293 6.831,68.005 7.487,68.596 C7.65,68.292 7.801,67.987 7.99,67.685 C13.99,56.685 18.99,50.685 12.99,38.685 C15.158,38.685 17.841,37.641 19.166,36.684 C16.911,32.34 15.972,27.649 17.319,22.722 C16.69,20.781 16.391,18.778 16.99,16.685 C17.99,15.685 28.875,4.739 46.876,4.304 Z"/>
                        <path
                            fill="#A8F8A9"
                            d="M41.535,29.618 C51.569,17.109 49.793,7.72 44.896,3.073 C44.896,3.073 43.471,2.112 41.718,2.35 C40.505,2.514 40.512,2.708 40.512,2.708 C45.267,4.478 45.452,18.453 38.446,29.969 C38.446,29.969 39.748,30.064 40.217,30.03 C40.688,29.996 41.535,29.618 41.535,29.618 Z"/>
                        <path
                            fill="#81DB82"
                            d="M40.218,30.03 C40.365,30.019 40.548,29.973 40.731,29.919 C46.64,18.175 46.462,5.261 42.192,2.323 C42.037,2.325 41.881,2.328 41.719,2.35 C40.506,2.514 40.513,2.708 40.513,2.708 C45.268,4.478 45.453,18.453 38.447,29.969 C38.446,29.97 39.748,30.064 40.218,30.03 Z"/>
                    </g>
                    <path
                        fill="#FFF"
                        fill-rule="nonzero"
                        d="M124.048,90.938 C124.43,90.739 128.607,87.989 128.607,87.758 C128.607,87.527 130.723,81.115 131.336,81.653 C131.95,82.19 132.049,81.764 132.18,82.88 C132.313,83.995 132.948,83.955 132.948,83.955 C132.948,83.955 134.392,83.724 134.63,84.415 C134.868,85.106 134.776,87.715 134.63,88.329 C134.484,88.942 132.795,91.628 132.565,91.628 C132.335,91.628 129.879,93.521 129.879,93.521 L124.752,96.375"/>
                    <path
                        fill="#9595E6"
                        fill-rule="nonzero"
                        d="M133.731,83.931 C133.328,83.896 132.947,83.955 132.947,83.955 C132.947,83.955 132.312,83.995 132.179,82.88 C132.048,81.765 131.95,82.191 131.335,81.653 C130.722,81.116 128.606,87.528 128.606,87.758 C128.606,87.988 124.429,90.738 124.047,90.938 L124.364,93.388 C128.976,92.088 131.206,87.915 133.731,83.931 Z"/>
                    <path
                        fill="#A2A2ED"
                        fill-rule="nonzero"
                        d="M133.731,83.931 C131.206,87.915 128.975,92.088 124.365,93.389 L124.751,96.374 L129.878,93.52 C129.878,93.52 132.333,91.627 132.564,91.627 C132.795,91.627 134.484,88.941 134.629,88.328 C134.775,87.714 134.866,85.105 134.629,84.414 C134.514,84.079 134.112,83.963 133.731,83.931 Z"/>
                </g>
                <g
                    fill-rule="nonzero"
                    transform="translate(431 302)">
                    <path
                        fill="#71BF72"
                        d="M39.8787313,99.4210027 C45.929275,93.8814757 43.8972056,87.8667906 54.0914549,83.1869059 C61.6696831,79.7082713 64.2345047,77.1131775 66.704538,75.175292 C71.0129125,71.7922513 77.6155813,76.2352599 71.5615782,81.8612432 C66.3143142,86.7379389 65.2757933,86.6416421 63.3668796,91.2463168 C59.9724865,99.4336548 50.5227066,92.6738995 49.1832152,96.1581573 C47.8437237,99.6410093 49.9415223,102.960789 47.4963969,107.011582 C45.0498878,111.063077 33,115 33,115 C33,115 33.8281876,104.959124 39.8787313,99.4210027 Z"/>
                    <path
                        fill="#71BF72"
                        d="M40.6749791,98.7345958 C38.546251,100.621464 37.0491234,103.035678 36,105.391299 C36.32537,108.207301 36.7308421,110 36.7308421,110 C36.7308421,110 44.3660506,104.419614 49.706656,98.4248844 C49.7165802,97.4483168 49.8172393,96.4780272 50.2078251,95.4958793 C50.5750183,94.5723254 51.53766,94.3763144 52.8136209,94.4279329 C53.7230975,93.0216757 54.3837618,91.6565737 54.654549,90.4030795 C55.2613394,87.5814969 54.9940964,85.1986721 54.4284204,83 C44.9012453,87.5891699 46.7074389,93.3844008 40.6749791,98.7345958 Z"
                        opacity=".7"/>
                    <path
                        fill="#FFF"
                        d="M32.3173972,118 L31,117.424023 C46.5418016,91.4378206 55.7343064,84.9647975 65,82 C65.000697,82 48.000697,90.6679639 32.3173972,118 Z"/>
                    <path
                        fill="#81DB82"
                        d="M36.6049525,79.3930607 C42.827425,67.5814567 38.1446404,64.488058 50.9213491,52.1942477 C60.4199008,43.0533246 61.6479111,31.8254071 64.3470401,27.5310419 C69.0547589,20.0389982 84.6898987,30.4669712 81.5987483,42.0133267 C78.5103684,53.5582826 62.6085711,48.3533943 67.328757,55.331038 C75.5501226,67.4799764 49.0291191,63.5131475 48.7631541,69.8203215 C48.4985743,76.124696 53.2374609,80.5982265 51.6167368,88.338022 C49.9925495,96.075018 34.1052971,108 34.1052971,108 C34.1052971,108 30.3810947,91.203265 36.6049525,79.3930607 Z"/>
                    <path
                        fill="#81DB82"
                        d="M67.0712093,51.9275059 C66.7206368,50.9853933 66.7123393,50.1587701 67.3408804,49.5225291 C71.4896668,44.622984 77.0213821,39.7234389 74.2555244,32.7240887 C73.3400256,29.9460467 71.5138681,27.1708043 69.1829416,25.0017057 C67.1963643,24.9590097 65.4269069,25.7156394 64.2942882,27.5228716 C61.6003429,31.8183728 60.373685,43.0474303 50.8909422,52.1885816 C38.1354983,64.4836401 42.8104892,67.5773529 36.5983729,79.3901562 C30.3855653,91.2015596 34.1035694,108 34.1035694,108 C34.1035694,108 49.9643799,96.0738072 51.5858639,88.3360256 C52.838106,82.3494814 50.2976657,78.3157559 49.2023861,73.8781679 C48.9347894,74.7978825 48.7508599,75.7756918 48.6713415,76.8199948 C48.7501684,75.7756918 48.9347894,74.7978825 49.2023861,73.8781679 C48.8808552,72.5783886 48.6768732,71.2450124 48.7370306,69.816445 C48.8193148,67.8587268 51.4268271,66.8907167 54.7382501,66.1242878 C57.7931399,63.7403091 61.6086405,62.0681644 65.2671786,60.7214894 C66.7068075,59.7492797 67.1486533,58.1037325 67.9763362,56.4861826 C67.7778859,56.115917 67.5455539,55.7302528 67.271734,55.3256904 C66.0948615,53.584252 66.2013471,52.6015433 67.0712093,51.9275059 Z"/>
                    <path
                        fill="#71BF72"
                        d="M65.4479446 60.3943355C61.8175463 61.7915759 58.0313929 63.5265069 55 66 61.9486002 64.3166304 72.0198506 63.5635439 68.1362645 56 67.3142616 57.6775599 66.8765005 59.3856209 65.4479446 60.3943355zM69.3369414 25C71.6547309 27.1757779 73.4705962 29.9579662 74.3809354 32.7436637 77.1312047 39.7623021 71.630666 44.675349 67.505262 49.5883959 66.8809508 50.2256882 66.8892017 51.0552913 67.2371107 52 69.8374904 49.9695079 79.3011672 50.7401544 81.6017676 42.051782 83.9298706 33.263043 75.5553004 25.1298448 69.3369414 25zM36.074436 110.743619C36.074436 110.743619 35.6728426 108.924714 35.350585 106.067545 33.3629786 110.640288 33 115 33 115 33 115 45.2275352 111.03521 47.7101124 106.956474 49.4863908 104.037024 48.9036592 101.494802 48.9254239 99 43.6366077 105.081656 36.074436 110.743619 36.074436 110.743619z"/>
                    <path
                        fill="#81DB82"
                        d="M49.4839151,96.0744531 C49.1067762,97.0554414 49.0095825,98.0245855 49,99 C50.1457906,97.6692559 51.1786448,96.3203969 52,95.0077676 C50.7679671,94.9555133 49.8377823,95.1512929 49.4839151,96.0744531 Z"/>
                    <path
                        fill="#FFF"
                        d="M34.2052205,113 L32,112.658497 C42.0499081,63.6284121 56.084507,45.0806133 68,41 C50.7123393,53.4223487 39.6573025,76.974213 34.2052205,113 Z"/>
                    <path
                        fill="#71BF72"
                        d="M28.8156303,81.5260436 C23.7287084,69.1713316 34.9245503,57.8283616 23.3036915,44.3410295 C14.6642428,34.3158396 18.8340229,8.52899418 16.5467605,3.99432158 C14.1203889,-0.816344194 9.23322469,-0.142112736 5.68069795,3.03774782 C7.77656716,4.8320308 8.65528577,6.07370303 8.99921398,8.47728913 C11.7953783,25.9452113 15.2905836,42.0156997 24.3781176,57.3874713 C29.2714051,65.073357 19.4848301,72.0605259 22.9800355,79.7464117 C27.0666296,87.9165082 26.8506259,96.0859061 25.5490114,104.115561 C27.2770409,105.294995 28.5066542,106 28.5066542,106 C28.5066542,106 33.9046494,93.8786594 28.8156303,81.5260436 Z"/>
                    <path
                        fill="#81DB82"
                        d="M23.6114076,80.6334071 C20.1339277,72.9481071 29.8708715,65.9614708 25.0023996,58.2761708 C15.9609518,42.9055708 12.4834718,26.8363072 9.70148787,9.36971636 C9.35930384,6.96701212 7.83755862,4.7347818 5.72255532,3 C3.44411046,5.0498791 1.99608781,8.52363469 2.76252439,13.1397053 C4.71756361,24.9170782 7.95718393,26.039132 2.55457109,32.5017706 C-6.85062117,43.7530498 12.6837747,55.2544506 13.4641212,69.3562774 C14.0539018,80.0108978 17.7636774,81.9406067 15.4435027,90.1918243 C13.9008926,95.6777311 21.7057486,101.940552 26.1673554,105 C27.4623689,96.9709575 27.6765817,88.802881 23.6114076,80.6334071 Z"/>
                    <path
                        fill="#FFF"
                        d="M27.730966,111 C26.9411878,95.9872705 23.0077279,78.0321688 19.063747,62.1908282 C15.255838,46.8932854 11.4324981,33.6801846 12.0700721,26 C13.1712725,30.1968069 13.5430154,32.1528038 14.300529,34.8773776 C15.8744741,40.5366447 17.8966148,49.5466558 20.7351869,61.6484265 C24.4848796,77.6384564 29.1997008,95.6521961 30,110.882724 L27.730966,111 Z"/>
                    <polygon
                        fill="#8E8ED6"
                        points="47.247 154 18.753 154 11 110 55 110"/>
                    <path
                        fill="#6F6FBA"
                        d="M49.0394531,110 C47.9139059,123.240414 50.8226234,135.262873 39.1266281,142.9436 C32.8117603,146.941399 30,154 30,154 L48.0635573,154 L56,110 L49.0394531,110 Z"/>
                    <path
                        fill="#6F6FBA"
                        d="M11,110 L11.9856483,115.358208 C25.3873081,116.632076 40.3429427,118.606572 54.1379009,114.690754 L55,110 L11,110 Z"/>
                    <path
                        fill="#A1A1DE"
                        d="M9,110 L9.79583322,113.690803 C31.0157655,115.951676 47.6431912,114.961616 57.3180533,113.154756 L58,110 L9,110 Z"/>
                </g>
                <g
                    fill-rule="nonzero"
                    transform="matrix(-1 0 0 1 389 97)">
                    <path
                        fill="#FFF"
                        d="M17.627773,44.2000656 C7.13252422,40.2316442 0,32.4501269 0,23.5 C0,10.5213084 14.9984609,0 33.5,0 C52.0015391,0 67,10.5213084 67,23.5 C67,36.3969092 52.1899627,46.8673069 33.8493301,46.9987487 L11,56 L17.627773,44.2000656 Z"
                        transform="matrix(-1 0 0 1 67 0)"/>
                    <rect
                        width="40"
                        height="4"
                        x="13"
                        y="17"
                        fill="#4B4BA9"
                        rx="2"/>
                    <rect
                        width="30"
                        height="4"
                        x="18"
                        y="27"
                        fill="#4B4BA9"
                        rx="2"/>
                </g>
                <g
                    fill-rule="nonzero"
                    transform="matrix(-1 0 0 1 200 121)">
                    <path
                        fill="#FFF"
                        d="M17.627773,44.2000656 C7.13252422,40.2316442 0,32.4501269 0,23.5 C0,10.5213084 14.9984609,0 33.5,0 C52.0015391,0 67,10.5213084 67,23.5 C67,36.3969092 52.1899627,46.8673069 33.8493301,46.9987487 L11,56 L17.627773,44.2000656 Z"
                        transform="matrix(-1 0 0 1 67 0)"/>
                    <rect
                        width="40"
                        height="4"
                        x="14"
                        y="17"
                        fill="#4B4BA9"
                        rx="2"/>
                    <rect
                        width="30"
                        height="4"
                        x="19"
                        y="27"
                        fill="#4B4BA9"
                        rx="2"/>
                </g>
            </g>

        </svg>