<?xml version="1.0" encoding="UTF-8"?>
<svg width="384px" height="449px" viewBox="0 0 384 449" version="1.1" xmlns="http://www.w3.org/2000/svg" xmlns:xlink="http://www.w3.org/1999/xlink">
    <!-- Generator: Sketch 52.5 (67469) - http://www.bohemiancoding.com/sketch -->
    <title>Shape</title>
    <desc>Created with Sketch.</desc>
    <g id="layouts" stroke="none" stroke-width="1" fill="none" fill-rule="evenodd">
        <g id="Landing-page" transform="translate(-63.000000, -1029.000000)" fill="#6464E1" fill-rule="nonzero">
            <g id="xing" transform="translate(63.000000, 1029.000000)">
                <path d="M162.7,178 C160.9,181.3 137.5,222.4 92.6,301.5 C87.7,309.8 81.8,314 74.9,314 L9.8,314 C2.1,314 -2.3,306.5 1.3,299.6 L70.3,178.3 C70.5,178.3 70.5,178.2 70.3,178 L26.4,102.4 C22.1,94.6 26.7,88.3 34.9,88.3 L100,88.3 C107.3,88.3 113.3,92.4 118,100.5 L162.7,178 Z M382.6,14.1 L238.6,267.1 L238.6,267.4 L330.2,434 C334.1,441.1 330.4,448.1 321.7,448.1 L256.5,448.1 C248.9,448.1 242.9,444.1 238.5,435.9 L146.1,267.4 C149.4,261.6 197.6,176.6 290.9,12.2 C295.5,4.1 301.3,4.26325641e-14 308.4,4.26325641e-14 L374.1,4.26325641e-14 C382.1,4.26325641e-14 386.4,6.7 382.6,14.1 Z" id="Shape"></path>
            </g>
        </g>
    </g>
</svg>