<svg xmlns="http://www.w3.org/2000/svg" xmlns:xlink="http://www.w3.org/1999/xlink" width="688" height="527" viewBox="0 0 688 527">
  <defs>
    <path id="error404-a" d="M423.522557,278.146678 C423.522557,288.399593 415.121147,296.788341 404.852757,296.788341 L18.6698004,296.788341 C8.40141022,296.788341 0,288.399593 0,278.146678 L0,18.641664 C0,8.38874884 8.40141022,0 18.6698004,0 L404.852757,0 C415.121147,0 423.522557,8.38874884 423.522557,18.641664 L423.522557,84.4225041 C423.522557,94.6754193 423.522557,111.452917 423.522557,121.705832 L423.522557,278.146678 Z"/>
  </defs>
  <g fill="none" fill-rule="evenodd" transform="translate(-68 -95)">
    <g transform="scale(-1 1) rotate(17 -328.948 -2194.845)">
      <path fill="#5151B0" d="M239.74056,480.815782 C21.499503,481.983671 -83.6557948,304.875059 84.6315177,216.742693 C236.66831,137.119975 173.626583,27.9156041 317.030403,5.25897885 C383.038014,-5.16971564 516.215842,-2.19321413 596.679354,70.0054401 C677.145339,142.205136 716.93617,281.22453 655.713798,375.525557 C594.491427,469.825543 485.477265,479.499954 239.74056,480.815782 Z"/>
      <path fill="#4B4BA9" d="M105.107996,370.099226 C152.285188,359.7386 199.463618,349.377974 237.653264,322.064163 C296.06489,279.680162 260.118417,215.632373 243.269862,163.828206 C229.78978,125.211233 220.804709,80.0017013 256.749944,49.8613213 C278.779337,31.1123357 303.508708,16.5663533 329.914269,4.67670209 C325.274417,5.20921397 320.866062,5.80816008 316.725106,6.45900794 C173.189281,29.0331519 236.287801,137.839965 84.1122942,217.172817 C3.44349184,259.226723 -14.4424689,321.612618 12.8036627,375.083869 C43.6410991,375.736793 74.5986171,377.23883 105.107996,370.099226 Z"/>
      <path fill="#5151B0" d="M596.206468,71.2898208 C520.799606,3.7589975 399.091825,-3.08505469 329.781419,4.89326166 C303.404661,16.8025155 278.702264,31.371208 256.696899,50.1484261 C220.790872,80.3358634 229.767379,125.61598 243.231521,164.293244 C260.061698,216.177251 295.967726,280.325036 237.621049,322.77625 C199.471823,350.132705 152.346089,360.509506 105.220355,370.886308 C74.7430186,378.037058 43.8205044,376.532677 13.0154676,375.878733 C42.629655,434.150385 125.624318,481.851859 239.328799,481.244701 C485.023422,479.931616 594.017679,470.277374 655.230803,376.173996 C716.443927,282.069578 676.658674,143.338987 596.206468,71.2898208 Z"/>
      <path fill="#5858B8" d="M596.550325,70.0358444 C594.373171,68.080157 592.150273,66.1839226 589.897704,64.3273234 C555.013788,129.847543 524.187464,195.807923 485.965492,261.768303 C470.260559,288.267606 454.555626,314.767952 429.876269,337.481044 C361.447368,399.944133 267.216534,418.872057 171.864361,431.175678 C137.572641,435.410393 103.434224,436.484717 69.339078,435.728518 C110.802672,463.506579 169.397909,481.698122 239.756701,481.321587 C485.394314,480.004236 594.36328,470.31863 655.562201,375.909518 C716.759884,281.500406 676.983863,142.319092 596.550325,70.0358444 Z"/>
    </g>
    <g transform="translate(166 129)">
      <path fill="#30308A" d="M434.977158,283.367427 C435.484749,293.614595 427.470055,302 417.168391,302 L29.7302983,302 C19.4286343,302 11,293.605268 11,283.345041 L11,23.6549586 C11,13.3947314 19.4286343,5 29.7302983,5 L402.44825,5 C412.749913,5 421.596234,13.3854039 422.103824,23.6325727 L434.977158,283.367427 Z"/>
      <path fill="#FFF" d="M424,278.345042 C424,288.60527 415.589118,297 405.309152,297 L18.6908472,297 C8.41088124,297 0,288.60527 0,278.345042 L0,18.6549586 C0,8.39473141 8.41088124,0 18.6908472,0 L405.309152,0 C415.589118,0 424,8.39473141 424,18.6549586 L424,84.4827114 C424,94.7429386 424,111.532401 424,121.792629 L424,278.345042 Z"/>
      <mask id="error404-b" fill="#fff">
        <use xlink:href="#error404-a"/>
      </mask>
      <rect width="425.113" height="33.547" x=".285" y="-.559" fill="#E6E6F2" mask="url(#error404-b)"/>
      <path fill="#A2A2ED" d="M412,15.9990793 C412,19.3134879 409.066225,22 405.448773,22 L296.551227,22 C292.929754,22 290,19.3134879 290,15.9990793 C290,12.6846709 292.929754,10 296.551227,10 L405.448773,10 C409.066225,10 412,12.6846709 412,15.9990793 Z"/>
      <g fill="#A2A2ED" transform="translate(14 10)">
        <ellipse cx="6.903" cy="6.247" rx="6.008" ry="6.12"/>
        <ellipse cx="25.865" cy="6.247" rx="6.008" ry="6.12"/>
        <ellipse cx="44.74" cy="6.743" rx="6.011" ry="6.122"/>
      </g>
    </g>
    <path fill="#5858B8" d="M283.9875 297L283.9875 276.76 250.9825 276.76 250.9825 270.55 282.3775 223.63 292.9575 223.63 292.9575 269.17 302.9625 269.17 302.9625 276.76 292.9575 276.76 292.9575 297 283.9875 297zM260.9875 269.17L283.9875 269.17 283.9875 247.895C283.9875 245.901657 284.044999 243.54418 284.16 240.8225 284.275001 238.10082 284.409166 235.743343 284.5625 233.75L284.1025 233.75C283.182495 235.513342 282.224172 237.238325 281.2275 238.925 280.230828 240.611675 279.195839 242.336658 278.1225 244.1L260.9875 269.17zM334.8175 298.38C327.380796 298.38 321.592521 295.083366 317.4525 288.49 313.312479 281.896634 311.2425 272.428395 311.2425 260.085 311.2425 247.741605 313.312479 238.350032 317.4525 231.91 321.592521 225.469968 327.380796 222.25 334.8175 222.25 342.177537 222.25 347.927479 225.469968 352.0675 231.91 356.207521 238.350032 358.2775 247.741605 358.2775 260.085 358.2775 272.428395 356.207521 281.896634 352.0675 288.49 347.927479 295.083366 342.177537 298.38 334.8175 298.38zM334.8175 290.79C336.964177 290.79 338.899991 290.195839 340.625 289.0075 342.350009 287.819161 343.844994 285.979179 345.11 283.4875 346.375006 280.995821 347.352497 277.814186 348.0425 273.9425 348.732503 270.070814 349.0775 265.451694 349.0775 260.085 349.0775 254.718306 348.732503 250.118353 348.0425 246.285 347.352497 242.451647 346.375006 239.327512 345.11 236.9125 343.844994 234.497488 342.350009 232.715006 340.625 231.565 338.899991 230.414994 336.964177 229.84 334.8175 229.84 332.670823 229.84 330.715842 230.414994 328.9525 231.565 327.189158 232.715006 325.675006 234.497488 324.41 236.9125 323.144994 239.327512 322.167503 242.451647 321.4775 246.285 320.787497 250.118353 320.4425 254.718306 320.4425 260.085 320.4425 270.818387 321.764987 278.619142 324.41 283.4875 327.055013 288.355858 330.524145 290.79 334.8175 290.79zM398.2975 297L398.2975 276.76 365.2925 276.76 365.2925 270.55 396.6875 223.63 407.2675 223.63 407.2675 269.17 417.2725 269.17 417.2725 276.76 407.2675 276.76 407.2675 297 398.2975 297zM375.2975 269.17L398.2975 269.17 398.2975 247.895C398.2975 245.901657 398.354999 243.54418 398.47 240.8225 398.585001 238.10082 398.719166 235.743343 398.8725 233.75L398.4125 233.75C397.492495 235.513342 396.534172 237.238325 395.5375 238.925 394.540828 240.611675 393.505839 242.336658 392.4325 244.1L375.2975 269.17zM457.8675 256.865C455.950824 256.865 454.321673 256.194173 452.98 254.8525 451.638327 253.510827 450.9675 251.80501 450.9675 249.735 450.9675 247.511656 451.638327 245.729173 452.98 244.3875 454.321673 243.045827 455.950824 242.375 457.8675 242.375 459.707509 242.375 461.298327 243.045827 462.64 244.3875 463.981673 245.729173 464.6525 247.511656 464.6525 249.735 464.6525 251.80501 463.981673 253.510827 462.64 254.8525 461.298327 256.194173 459.707509 256.865 457.8675 256.865zM457.8675 298.38C455.950824 298.38 454.321673 297.709173 452.98 296.3675 451.638327 295.025827 450.9675 293.32001 450.9675 291.25 450.9675 289.026656 451.638327 287.244173 452.98 285.9025 454.321673 284.560827 455.950824 283.89 457.8675 283.89 459.707509 283.89 461.298327 284.560827 462.64 285.9025 463.981673 287.244173 464.6525 289.026656 464.6525 291.25 464.6525 293.32001 463.981673 295.025827 462.64 296.3675 461.298327 297.709173 459.707509 298.38 457.8675 298.38zM496.7375 317.24C491.984143 309.573295 488.265847 301.485043 485.5825 292.975 482.899153 284.464957 481.5575 275.150051 481.5575 265.03 481.5575 254.909949 482.899153 245.614209 485.5825 237.1425 488.265847 228.670791 491.984143 220.563372 496.7375 212.82L502.6025 215.58C498.155811 222.940037 494.840011 230.817458 492.655 239.2125 490.469989 247.607542 489.3775 256.213289 489.3775 265.03 489.3775 273.846711 490.469989 282.452458 492.655 290.8475 494.840011 299.242542 498.155811 307.119963 502.6025 314.48L496.7375 317.24zM268.044 360L268.044 338.418 274.842 338.418C276.030006 338.418 277.135495 338.527999 278.1585 338.748 279.181505 338.968001 280.066996 339.341997 280.815 339.87 281.563004 340.398003 282.145998 341.085496 282.564 341.9325 282.982002 342.779504 283.191 343.829994 283.191 345.084 283.191 346.272006 282.982002 347.305996 282.564 348.186 282.145998 349.066004 281.568504 349.797497 280.8315 350.3805 280.094496 350.963503 279.225505 351.392499 278.2245 351.6675 277.223495 351.942501 276.140006 352.08 274.974 352.08L271.872 352.08 271.872 360 268.044 360zM271.872 349.011L274.677 349.011C277.845016 349.011 279.429 347.702013 279.429 345.084 279.429 343.719993 279.016504 342.779503 278.1915 342.2625 277.366496 341.745497 276.151008 341.487 274.545 341.487L271.872 341.487 271.872 349.011zM290.847 360.396C289.416993 360.396 288.262004 359.961504 287.382 359.0925 286.501996 358.223496 286.062 357.074007 286.062 355.644 286.062 354.785996 286.243498 354.021503 286.6065 353.3505 286.969502 352.679497 287.541496 352.102002 288.3225 351.618 289.103504 351.133998 290.093494 350.727002 291.2925 350.397 292.491506 350.066998 293.926992 349.814001 295.599 349.638 295.577 349.219998 295.5165 348.818502 295.4175 348.4335 295.3185 348.048498 295.153501 347.707501 294.9225 347.4105 294.691499 347.113499 294.389002 346.882501 294.015 346.7175 293.640998 346.552499 293.179003 346.47 292.629 346.47 291.836996 346.47 291.061504 346.623998 290.3025 346.932 289.543496 347.240002 288.801004 347.613998 288.075 348.054L286.689 345.513C287.591005 344.940997 288.602994 344.446002 289.725 344.028 290.847006 343.609998 292.056994 343.401 293.355 343.401 295.37901 343.401 296.891495 344.000494 297.8925 345.1995 298.893505 346.398506 299.394 348.130989 299.394 350.397L299.394 360 296.259 360 295.995 358.218 295.863 358.218C295.136996 358.834003 294.361504 359.350998 293.5365 359.769 292.711496 360.187002 291.815005 360.396 290.847 360.396zM292.068 357.426C292.728003 357.426 293.327497 357.272002 293.8665 356.964 294.405503 356.655998 294.982997 356.216003 295.599 355.644L295.599 352.014C294.498994 352.146001 293.575004 352.321999 292.827 352.542 292.078996 352.762001 291.474002 353.009499 291.012 353.2845 290.549998 353.559501 290.220001 353.872998 290.022 354.225 289.823999 354.577002 289.725 354.950998 289.725 355.347 289.725 356.073004 289.944998 356.600998 290.385 356.931 290.825002 357.261002 291.385997 357.426 292.068 357.426zM309.591 367.161C308.622995 367.161 307.726504 367.073001 306.9015 366.897 306.076496 366.720999 305.367003 366.457002 304.773 366.105 304.178997 365.752998 303.711502 365.313003 303.3705 364.785 303.029498 364.256997 302.859 363.641004 302.859 362.937 302.859 362.254997 303.056998 361.622503 303.453 361.0395 303.849002 360.456497 304.420996 359.934002 305.169 359.472L305.169 359.34C304.750998 359.075999 304.404501 358.724002 304.1295 358.284 303.854499 357.843998 303.717 357.294003 303.717 356.634 303.717 355.995997 303.898498 355.418503 304.2615 354.9015 304.624502 354.384497 305.036998 353.961002 305.499 353.631L305.499 353.499C304.948997 353.080998 304.459502 352.503504 304.0305 351.7665 303.601498 351.029496 303.387 350.177005 303.387 349.209 303.387 348.284995 303.562998 347.460004 303.915 346.734 304.267002 346.007996 304.734497 345.397502 305.3175 344.9025 305.900503 344.407498 306.576996 344.033501 307.347 343.7805 308.117004 343.527499 308.930996 343.401 309.789 343.401 310.229002 343.401 310.652498 343.4395 311.0595 343.5165 311.466502 343.5935 311.834998 343.686999 312.165 343.797L317.973 343.797 317.973 346.602 315.003 346.602C315.267001 346.910002 315.486999 347.300498 315.663 347.7735 315.839001 348.246502 315.927 348.768997 315.927 349.341 315.927 350.243005 315.767502 351.034997 315.4485 351.717 315.129498 352.399003 314.695003 352.970998 314.145 353.433 313.594997 353.895002 312.946004 354.246999 312.198 354.489 311.449996 354.731001 310.647004 354.852 309.789 354.852 309.436998 354.852 309.074002 354.819 308.7 354.753 308.325998 354.687 307.952002 354.577001 307.578 354.423 307.335999 354.643001 307.143501 354.862999 307.0005 355.083 306.857499 355.303001 306.786 355.599998 306.786 355.974 306.786 356.436002 306.978498 356.798999 307.3635 357.063 307.748502 357.327001 308.435995 357.459 309.426 357.459L312.297 357.459C314.25501 357.459 315.734495 357.772497 316.7355 358.3995 317.736505 359.026503 318.237 360.043993 318.237 361.452 318.237 362.244004 318.033502 362.991996 317.6265 363.696 317.219498 364.400004 316.642004 365.004997 315.894 365.511 315.145996 366.017003 314.238505 366.418499 313.1715 366.7155 312.104495 367.012501 310.911007 367.161 309.591 367.161zM309.789 352.476C310.559004 352.476 311.218997 352.195503 311.769 351.6345 312.319003 351.073497 312.594 350.265005 312.594 349.209 312.594 348.196995 312.324503 347.410503 311.7855 346.8495 311.246497 346.288497 310.581004 346.008 309.789 346.008 308.996996 346.008 308.326003 346.282997 307.776 346.833 307.225997 347.383003 306.951 348.174995 306.951 349.209 306.951 350.265005 307.225997 351.073497 307.776 351.6345 308.326003 352.195503 308.996996 352.476 309.789 352.476zM310.185 364.686C311.505007 364.686 312.566496 364.427503 313.3695 363.9105 314.172504 363.393497 314.574 362.783004 314.574 362.079 314.574 361.440997 314.326502 361.012001 313.8315 360.792 313.336498 360.571999 312.627005 360.462 311.703 360.462L309.492 360.462C308.611996 360.462 307.875003 360.385001 307.281 360.231 306.444996 360.869003 306.027 361.583996 306.027 362.376 306.027 363.102004 306.395496 363.668498 307.1325 364.0755 307.869504 364.482502 308.886994 364.686 310.185 364.686zM328.038 360.396C326.915994 360.396 325.871005 360.203502 324.903 359.8185 323.934995 359.433498 323.088004 358.878004 322.362 358.152 321.635996 357.425996 321.069502 356.540505 320.6625 355.4955 320.255498 354.450495 320.052 353.257007 320.052 351.915 320.052 350.594993 320.260998 349.407005 320.679 348.351 321.097002 347.294995 321.652497 346.404004 322.3455 345.678 323.038503 344.951996 323.835995 344.391002 324.738 343.995 325.640005 343.598998 326.563995 343.401 327.51 343.401 328.610005 343.401 329.577996 343.587998 330.414 343.962 331.250004 344.336002 331.948497 344.863997 332.5095 345.546 333.070503 346.228003 333.493999 347.041995 333.78 347.988 334.066001 348.934005 334.209 349.967994 334.209 351.09 334.209 351.464002 334.1925 351.815998 334.1595 352.146 334.1265 352.476002 334.088 352.739999 334.044 352.938L323.748 352.938C323.924001 354.390007 324.435496 355.506496 325.2825 356.2875 326.129504 357.068504 327.212993 357.459 328.533 357.459 329.237004 357.459 329.891497 357.354501 330.4965 357.1455 331.101503 356.936499 331.700997 356.645002 332.295 356.271L333.582 358.647C332.811996 359.153003 331.954005 359.570998 331.008 359.901 330.061995 360.231002 329.072005 360.396 328.038 360.396zM323.715 350.364L330.909 350.364C330.909 349.109994 330.639503 348.125504 330.1005 347.4105 329.561497 346.695496 328.731006 346.338 327.609 346.338 326.640995 346.338 325.794004 346.678997 325.068 347.361 324.341996 348.043003 323.891001 349.043993 323.715 350.364zM344.769 360L344.769 338.418 348.696 338.418 355.428 350.562 357.639 355.149 357.771 355.149C357.683 354.026994 357.578501 352.822506 357.4575 351.5355 357.336499 350.248494 357.276 349.000006 357.276 347.79L357.276 338.418 360.939 338.418 360.939 360 357.012 360 350.28 347.856 348.069 343.269 347.937 343.269C348.025 344.413006 348.129499 345.611994 348.2505 346.866 348.371501 348.120006 348.432 349.351994 348.432 350.562L348.432 360 344.769 360zM372.72 360.396C371.707995 360.396 370.740005 360.209002 369.816 359.835 368.891995 359.460998 368.072504 358.911004 367.3575 358.185 366.642496 357.458996 366.076002 356.568005 365.658 355.512 365.239998 354.455995 365.031 353.257007 365.031 351.915 365.031 350.572993 365.239998 349.374005 365.658 348.318 366.076002 347.261995 366.642496 346.371004 367.3575 345.645 368.072504 344.918996 368.891995 344.363502 369.816 343.9785 370.740005 343.593498 371.707995 343.401 372.72 343.401 373.732005 343.401 374.705495 343.593498 375.6405 343.9785 376.575505 344.363502 377.394996 344.918996 378.099 345.645 378.803004 346.371004 379.369498 347.261995 379.7985 348.318 380.227502 349.374005 380.442 350.572993 380.442 351.915 380.442 353.257007 380.227502 354.455995 379.7985 355.512 379.369498 356.568005 378.803004 357.458996 378.099 358.185 377.394996 358.911004 376.575505 359.460998 375.6405 359.835 374.705495 360.209002 373.732005 360.396 372.72 360.396zM372.72 357.294C373.908006 357.294 374.842997 356.804505 375.525 355.8255 376.207003 354.846495 376.548 353.543008 376.548 351.915 376.548 350.264992 376.207003 348.950505 375.525 347.9715 374.842997 346.992495 373.908006 346.503 372.72 346.503 371.531994 346.503 370.602503 346.992495 369.9315 347.9715 369.260497 348.950505 368.925 350.264992 368.925 351.915 368.925 353.543008 369.260497 354.846495 369.9315 355.8255 370.602503 356.804505 371.531994 357.294 372.72 357.294zM389.913 360.396C388.966995 360.396 388.169503 360.253001 387.5205 359.967 386.871497 359.680999 386.343502 359.279503 385.9365 358.7625 385.529498 358.245497 385.232501 357.629504 385.0455 356.9145 384.858499 356.199496 384.765 355.402004 384.765 354.522L384.765 346.8 382.455 346.8 382.455 343.962 384.963 343.797 385.425 339.375 388.593 339.375 388.593 343.797 392.718 343.797 392.718 346.8 388.593 346.8 388.593 354.522C388.593 356.414009 389.351992 357.36 390.87 357.36 391.156001 357.36 391.447499 357.327 391.7445 357.261 392.041501 357.195 392.310999 357.107001 392.553 356.997L393.213 359.802C392.772998 359.956001 392.272503 360.093499 391.7115 360.2145 391.150497 360.335501 390.551003 360.396 389.913 360.396zM403.047 360L403.047 338.418 416.082 338.418 416.082 341.652 406.875 341.652 406.875 347.757 414.729 347.757 414.729 350.991 406.875 350.991 406.875 360 403.047 360zM426.18 360.396C425.167995 360.396 424.200005 360.209002 423.276 359.835 422.351995 359.460998 421.532504 358.911004 420.8175 358.185 420.102496 357.458996 419.536002 356.568005 419.118 355.512 418.699998 354.455995 418.491 353.257007 418.491 351.915 418.491 350.572993 418.699998 349.374005 419.118 348.318 419.536002 347.261995 420.102496 346.371004 420.8175 345.645 421.532504 344.918996 422.351995 344.363502 423.276 343.9785 424.200005 343.593498 425.167995 343.401 426.18 343.401 427.192005 343.401 428.165495 343.593498 429.1005 343.9785 430.035505 344.363502 430.854996 344.918996 431.559 345.645 432.263004 346.371004 432.829498 347.261995 433.2585 348.318 433.687502 349.374005 433.902 350.572993 433.902 351.915 433.902 353.257007 433.687502 354.455995 433.2585 355.512 432.829498 356.568005 432.263004 357.458996 431.559 358.185 430.854996 358.911004 430.035505 359.460998 429.1005 359.835 428.165495 360.209002 427.192005 360.396 426.18 360.396zM426.18 357.294C427.368006 357.294 428.302997 356.804505 428.985 355.8255 429.667003 354.846495 430.008 353.543008 430.008 351.915 430.008 350.264992 429.667003 348.950505 428.985 347.9715 428.302997 346.992495 427.368006 346.503 426.18 346.503 424.991994 346.503 424.062503 346.992495 423.3915 347.9715 422.720497 348.950505 422.385 350.264992 422.385 351.915 422.385 353.543008 422.720497 354.846495 423.3915 355.8255 424.062503 356.804505 424.991994 357.294 426.18 357.294zM442.482 360.396C440.743991 360.396 439.479004 359.840506 438.687 358.7295 437.894996 357.618494 437.499 356.02901 437.499 353.961L437.499 343.797 441.294 343.797 441.294 353.466C441.294 354.808007 441.491998 355.753997 441.888 356.304 442.284002 356.854003 442.921996 357.129 443.802 357.129 444.506004 357.129 445.127497 356.953002 445.6665 356.601 446.205503 356.248998 446.782997 355.677004 447.399 354.885L447.399 343.797 451.194 343.797 451.194 360 448.092 360 447.795 357.624 447.696 357.624C446.991996 358.460004 446.227504 359.130997 445.4025 359.637 444.577496 360.143003 443.604006 360.396 442.482 360.396zM456.012 360L456.012 343.797 459.147 343.797 459.411 345.975 459.543 345.975C460.269004 345.270996 461.055496 344.666003 461.9025 344.16 462.749504 343.653997 463.733994 343.401 464.856 343.401 466.594009 343.401 467.858996 343.956494 468.651 345.0675 469.443004 346.178506 469.839 347.76799 469.839 349.836L469.839 360 466.044 360 466.044 350.331C466.044 348.988993 465.846002 348.043003 465.45 347.493 465.053998 346.942997 464.405005 346.668 463.503 346.668 462.798996 346.668 462.177503 346.838498 461.6385 347.1795 461.099497 347.520502 460.489003 348.020997 459.807 348.681L459.807 360 456.012 360zM480.168 360.396C478.12199 360.396 476.499506 359.653507 475.3005 358.1685 474.101494 356.683493 473.502 354.599013 473.502 351.915 473.502 350.594993 473.694498 349.407005 474.0795 348.351 474.464502 347.294995 474.975997 346.404004 475.614 345.678 476.252003 344.951996 476.983496 344.391002 477.8085 343.995 478.633504 343.598998 479.485996 343.401 480.366 343.401 481.290005 343.401 482.070997 343.560498 482.709 343.8795 483.347003 344.198502 483.984997 344.632997 484.623 345.183L484.491 342.576 484.491 336.702 488.286 336.702 488.286 360 485.151 360 484.887 358.251 484.755 358.251C484.160997 358.845003 483.468004 359.350998 482.676 359.769 481.883996 360.187002 481.048004 360.396 480.168 360.396zM481.092 357.261C482.302006 357.261 483.434995 356.656006 484.491 355.446L484.491 347.889C483.918997 347.382997 483.363503 347.031001 482.8245 346.833 482.285497 346.634999 481.741003 346.536 481.191 346.536 480.134995 346.536 479.244004 346.997995 478.518 347.922 477.791996 348.846005 477.429 350.165991 477.429 351.882 477.429 353.642009 477.742497 354.978495 478.3695 355.8915 478.996503 356.804505 479.903994 357.261 481.092 357.261z"/>
    <g transform="matrix(-1 0 0 1 226 203)">
      <path fill="#30308A" d="M63.7496994,199.728857 C54.7634909,198.324267 30.6914548,198.615358 22.2832063,195 C20.1790036,206.734492 19.6085355,220.824755 20.2475025,225.3426 C20.9442655,230.278142 36.6669195,398 36.6669195,398 L49.5650613,398 C49.563991,398 66.2220841,218.563129 63.7496994,199.728857 Z"/>
      <path fill="#1D1D7A" d="M63.7482756,200.4456 C59.4847091,199.782401 51.8423658,199.496315 44.0708562,199 C36.200319,223.016038 45.853352,248.729085 49.5216769,273.10273 C51.140562,288.583875 48.7122342,302.435197 39,316.287603 C39,317.102514 43.0472127,318.732337 45.4755405,321.991981 C48.7133106,326.066537 42.2377702,328.51127 43.8566554,332.584742 C44.6660979,333.399653 45.4755405,335.029476 47.0944255,335.029476 C46.284983,338.288037 47.0944255,340.73277 47.9038681,343.992414 C52.8003497,363.70958 45.0040832,380.995015 40.7060724,399 L49.4818505,399 C49.4818505,398.998916 66.2347281,219.306676 63.7482756,200.4456 Z"/>
      <path fill="#6EF36F" d="M49.9989261,419 L11,419 C11,419 11.0569155,407.390359 13.6492552,407.390359 C26.6302834,407.390359 37.0587052,397 37.0587052,397 L50,397 L50,419 L49.9989261,419 Z"/>
      <path fill="#A2A2ED" d="M31.8585515,61 C23.659588,58.7453655 11.7945535,63.1149475 9.97726864,53.5802227 C9.47433803,50.9458143 9.56449621,51.7839359 8.78240112,48.0473103 C8.56732496,47.0138452 6.62077716,37.1615509 6.4078735,35.4285598 C5.49108424,27.9858651 5.85388947,20.7559747 10.2933654,17.1786795 C18.7432513,10.3711239 29.2450504,0.936798987 38.0544828,6.88331562 C46.8617426,12.8320149 60.5006122,16.7028708 57.6036015,30.9902255 C54.7098497,45.2775803 51.2805799,58.7115351 51.2805799,58.7115351 C45.7407396,60.7206262 31.8585515,61 31.8585515,61 Z"/>
      <path fill="#30308A" d="M86.0438681,197 C68.9283702,201.268513 51.2684213,204.799365 34,202.143138 C36.5053419,220.912516 85.1350039,397 85.1350039,397 L101,397 C101,397 90.6337413,292.747124 85.5102629,235.58162 C83.7315787,215.737025 85.9061286,199.16661 86.0438681,197 Z"/>
      <path fill="#1D1D7A" d="M85.5536162,235.580542 C83.7800343,215.737025 85.9483463,199.16661 86.0856908,197 C72.6518897,200.360457 58.8828384,203.249629 45.2316656,203.037175 C42.0467884,215.487903 72.7394873,234.407186 73.5527394,239.273161 C76.8057481,253.057934 73.5527394,269.275695 84.1239362,282.250552 C86.5636927,285.494535 86.5636927,289.549514 84.9371883,292.792419 C75.1619406,311.026886 87.3769448,338.201719 89.8167014,347.122673 C92.2553764,356.852468 84.9371883,365.773423 88.190197,374.69222 C91.0971408,381.217934 94.6432231,389.041024 93.6190877,397 L101,397 C100.998919,396.998922 90.6634785,292.746046 85.5536162,235.580542 Z"/>
      <path fill="#6EF36F" d="M101,419 L72.147195,419 C72.147195,419 71.0656758,407.390359 74.7658382,407.390359 C77.3844813,407.390359 85.082034,397 85.082034,397 L101,397 L101,419 Z"/>
      <path fill="#FFF" d="M28,59.403817 C32.4102367,60.6488693 34.5588688,69.0431486 34.5588688,71.1717502 L30.732862,82 L48.8181679,82 L63,72.9815105 C63,72.9815105 53.1046726,62.295841 54.0547188,56.8890136 C55.002613,51.4810634 28,59.403817 28,59.403817 Z"/>
      <path fill="#9595E6" d="M53.1073899,55.9201406 C53.7720539,56.2152204 54.099666,56.6765914 53.9791271,57.346112 C53.0210528,62.6545184 63,73.1456752 63,73.1456752 L48.6983251,82 L32.8461538,82 C33.4777309,80.7888204 33.9408981,79.5272052 34.3426507,78.2362071 C33.9488944,79.0851414 33.5264353,79.9196637 33.0735617,80.7377049 L30.636626,80.7377049 L34.0968365,70.3545892 C33.6627414,67.5437654 32.7921975,62.9954635 28.0835238,60.0670711 C25.1351532,59.8766104 21.871072,59.7170625 21.0804495,59.6577352 C23.8783771,55.6603868 25.0607377,51.9076636 23.2117387,47.2987523 C23.2117387,46.2163401 15.6463682,37.0580502 14.692011,33.7685994 C10.5043483,19.3422091 27.0389388,20.9744868 18.669042,11.4633305 C25.4700582,6.42361912 32.8367399,2.54208884 39.2946652,6.86740814 C48.0977685,12.7676372 61.7302012,16.6069534 58.8345577,30.776812 C56.6731926,41.3653837 54.2129365,51.4825105 53.1073899,55.9201406 Z"/>
      <path fill="#A8F8A9" d="M54.2701329,58 C37.7011522,51.5029284 43.4754529,40.9841663 37.3393133,35.9508915 C34.0719622,33.2719077 26.9075522,35.1686282 23.4501007,29.0005357 C20.2097524,23.2192887 11.6228295,22.3663002 8.20966273,21.1704018 C-7.99747908,15.50703 4.79325556,0 4.79325556,0 C4.79325556,0 15.4594019,5.15543649 20.8070566,3.33801386 C35.6500118,-1.70169053 37.0087979,4.57034643 42.4914671,5.81768129 C51.2458079,7.80763048 64.0624653,8.10553349 65.837096,23.584702 C67.613887,39.0649422 54.2701329,58 54.2701329,58 Z"/>
      <path fill="#81DB82" d="M65.8322743,23.5514347 C64.0785139,8.68157347 51.856684,7.80738051 42.9066123,6 C49.8604888,15.1259309 32.6854259,13.4097238 34.0810944,16.1020235 C34.423617,24.3709235 36.6166514,26.8057922 39.9529107,26.8057922 C56.2260715,26.1943934 47.7386279,33.1031993 44.1843996,44.5631717 C44.0298196,49.4629427 45.0840775,54.6319438 53.9229405,58 C53.9229405,58 67.6616564,39.0466387 65.8322743,23.5514347 Z"/>
      <path fill="#30308A" d="M81.8115922,159.868585 C84.3495637,130.23521 74.3134373,71.6624976 71.823517,69.8959468 C71.5079086,69.6714678 66.5553696,65.5158981 57.6320628,63 C46.578127,74.5709626 34.3722203,79.9753183 34.3722203,70.2153686 C33.9375763,70.2153686 31.9214509,71.3208993 31.7030368,71.6310489 C25.1091161,81.0526537 20.186063,99.0912098 18.7827527,105.481808 C16.863985,114.223469 18.7674636,161.957215 21.3141717,184.773808 C23.2482282,202.096635 18.9170773,212.354342 19.051402,213.303226 C41.7238742,226.594109 47.5839237,213.334675 73.905003,206.779241 C73.9159237,206.620914 86.7532105,215.520903 86.8056299,215.387518 C94.3168897,197.345708 79.9867427,181.181062 81.8115922,159.868585 Z"/>
      <path fill="#1D1D7A" d="M81.0923877,159.720624 C83.3681998,139.088417 77.2354021,108.142775 73.3736151,87 C67.2690869,101.456025 56.2027606,113.475288 50.9440662,128.7064 C50.9440662,130.871449 59.4878426,131.953972 61.6237868,135.201544 C65.8956749,141.696688 56.2839266,146.026784 57.3518985,153.604452 C59.4878426,163.347166 69.3996911,164.03024 71.5356352,172.690431 C67.2637471,173.772955 67.2712229,192.307931 59.9566824,200.412786 C56.8990784,203.80217 39.1280236,214.708598 33,218.858996 C44.9612869,220.19916 53.0479712,211.666707 72.1518551,206.810504 C72.1625348,206.652456 84.7165462,215.53673 84.7678089,215.403578 C92.1133206,197.394711 78.7794242,180.689637 81.0923877,159.720624 Z"/>
      <g transform="rotate(23 -207.203 219.843)">
        <path fill="#A2A2ED" d="M7.08583411,14.520174 L30.4010252,58.8515934 C30.4010252,58.8515934 31.4855277,60.3987637 30.4225217,62.7910169 C23.5780106,78.1799289 8.29221734,117.110079 8.29221734,117.110079 C2.30386717,124.718549 -0.247205662,130.056977 0.638998828,133.125363 C1.96830556,137.727942 4.90325179,134.022471 6.06241181,133.530437 C8.39441314,132.540561 12.1203393,127.527056 17.2401904,118.489922 C17.2401904,118.489922 37.4035363,83.7858655 49.4169002,65.6735484 C50.8550214,63.5060057 51.2054156,57.6076211 50.0317024,55.2874043 C41.7533693,38.9179366 25.9114644,-7.44648787e-12 25.9114644,-7.44648787e-12"/>
        <path fill="#9595E6" d="M51.2861175,55.2874043 C42.9051449,38.9179366 26.8668231,-6.19593266e-12 26.8668231,-6.19593266e-12 L14.3116864,9.56471436 C23.6262963,35.1731185 42.0019759,50.2824863 43.8061375,58.2978811 C45.9824483,67.9744126 15.7436989,115.199115 9.05263158,126.72494 C6.19821987,130.892536 4.50659273,133.088574 3.97775016,133.313054 C-0.973645445,135.414797 5.31688656,137.261243 6.82421049,136.577282 C8.15089651,135.975287 10.5890496,133.449526 14.1386698,129 C14.1386698,129 38.5013801,83.7858655 50.6636926,65.6735484 C52.1196445,63.5060057 52.4743831,57.6076211 51.2861175,55.2874043 Z"/>
      </g>
      <path fill="#A2A2ED" d="M70.7922515,71 C61.7730382,74.1609834 56.1560007,78.3060969 47.6281277,75.1739957 L47,105.309774 L68.2830237,129.787873 C92.2350429,131.802131 99,118.808403 99,118.808403 C99,118.808403 84.5071024,81.8018985 70.7922515,71 Z"/>
      <path fill="#30308A" d="M83.0859467,91.4721013 C82.3338475,86.2845238 79.6223625,81.095809 77.1835279,75.5954528 C75.2899942,73.2808902 73.49913,71.0081622 71.5998197,69.5 C62.0778517,72.8609497 55.6618143,77.2683838 46.6585752,73.9381433 L46,106.093811 L68.6629904,132.272508 C74.0871156,132.732008 78.8367597,132.464313 82.7012322,131.748903 C82.8271599,131.590808 82.9715721,131.448635 83.087102,131.280304 C95.7942272,119.906532 84.2412448,103.983251 83.0859467,91.4721013 Z"/>
      <path fill="#1D1D7A" fill-rule="nonzero" d="M99,119.112214 C99,118.822499 87.9751869,90.5376228 76.1693326,76 C78.4680005,81.2177485 81.023649,86.1398678 81.7325228,91.0609081 C82.821423,102.929236 93.7104234,118.034381 81.7325228,128.82377 C81.6236329,128.983453 81.2414223,129.726401 81.1227322,129.876374 C94.4552244,127.391577 99,119.401928 99,119.112214 Z M60.6824623,214.243902 C64.8989281,218.484373 70.4308969,223.255038 74.9087493,222.724845 L68.5219177,232 L56,223.288445 L60.6824623,214.243902 Z"/>
    </g>
    <g transform="translate(507 203)">
      <polyline fill="#8E8ED6" points="94 283 100.466 368.777 112.359 369 119 290.149"/>
      <polyline fill="#8E8ED6" points="128.261 283 126 369 137.614 368.777 152 290.149"/>
      <path fill="#8E8ED6" d="M99.5744604,368.778434 L111.358561,369 L115,325.458844 C108.534532,324.657903 102.104604,323.214284 96,321 L99.5744604,368.778434 Z"/>
      <path fill="#6F6FBA" d="M94,283 L96.8571822,320.571465 C103.019922,322.770699 109.50825,324.204504 116.033828,325 L119,290.085654 L94,283 Z"/>
      <path fill="#8E8ED6" d="M126,369 L137.387851,368.776905 L145,326.139493 C138.9254,325.375981 132.958792,323.824019 127.232469,321 L126,369 Z"/>
      <path fill="#6F6FBA" d="M128.013965,283 L127,320.926774 C132.900189,323.714381 139.047959,325.246335 145.306999,326 L152,290.092122 L128.013965,283 Z"/>
      <path fill="#30308A" d="M95.6773201,158 C95.6773201,158 94.2670551,245.78443 72.4113614,273.710545 C63.1934437,285.491703 73.3847581,290.188542 94.2179074,311.330485 C115.053787,332.47517 178.168947,296.605409 177.99966,296.364193 C162.337937,274.116225 155.363064,236.239992 152.262666,205.786603 C151.607363,199.349178 157.429996,189.747178 157.073676,184.19101 C155.966488,166.842722 149.798456,158.348117 149.798456,158.348117 C129.727096,159.269119 115.644924,158.86207 95.6773201,158 Z"/>
      <path fill="#1D1D7A" d="M151.468183,205.361967 C151.1648,202.353254 152.257787,198.655304 153.472669,195 C146.06013,203.336899 152.853716,243.927693 140.373074,261.215065 C139.238101,263.519405 139.238101,265.825123 140.373074,268.129463 C142.64302,272.738145 148.316532,278.499685 144.912967,281.95826 C129.528526,297.58238 107.65659,301.909038 86,303.447099 C88.4148656,305.799591 91.0477868,308.391459 93.8825111,311.305247 C114.55311,332.529947 177.167607,296.524446 176.999663,296.282319 C161.463531,273.948784 154.543987,235.930598 151.468183,205.361967 Z"/>
      <path fill="#A8F8A9" d="M95.5419474,66 L60.2876887,92.407752 L50.2942382,87.8274568 C51.6632041,90.9033055 53.1839759,93.8589075 52.578107,97.5305225 C51.3609472,101.213069 48.8303935,100.999905 45,102.184605 C45,102.184605 52.1809713,108.016556 55.0693537,109.408955 C56.6131675,110.155029 58.1596924,111.741462 60.7810586,110.599121 C70.7595996,106.248387 100.197787,92.0770744 100.197787,92.0770744 C103.910259,75.6169801 93.4125956,83.1118844 95.5419474,66 Z"/>
      <path fill="#81DB82" d="M49.0530064,99.6307475 C47.7463814,100.286841 46.064305,100.522432 44,101.163458 C44,101.163458 51.1810161,107.009399 54.0694166,108.405138 C55.61324,109.153002 57.1597745,110.743241 59.7811572,109.59816 C69.7597605,105.236989 99.1981315,91.0316801 99.1981315,91.0316801 C100.598281,84.8104372 99.9761426,82.0038922 98.773885,80 C83.9306785,92.0973179 66.4647341,101.473013 49.0530064,99.6307475 Z"/>
      <path fill="#A8F8A9" fill-rule="nonzero" d="M100.747573,80.9163038 C98.7608163,77.649348 95.1860105,76.5499957 96.5136791,66 L61.2402728,92.1329425 L51.2413943,87.6003117 C52.6111038,90.6441517 54.1327017,93.5689968 53.5265036,97.2024034 C52.9650583,98.883209 52.1201781,99.7405144 51,100.294923 C68.4197195,102.113655 85.8950413,92.8577307 100.747573,80.9163038 Z M153.556453,67.1904761 C153.317746,78.3359725 146.700614,94.6594155 145.760454,106.078079 C145.615095,107.873372 150.5146,122.014195 150.382577,123.819002 C149.5411,135.393955 154.956692,128.786297 156.175567,141 C158.789347,140.804298 172.187638,138.044086 172.790407,133.836494 C175.010787,118.305372 158.978712,71.9199393 153.556453,67.1904761 Z"/>
      <path fill="#81DB82" d="M154.630911,67 C154.509367,72.4106795 152.820344,79.0394771 151,85.7377648 C159.0735,97.1450194 164.860043,109.898472 166.468037,124.015835 C160.879874,124.015835 155.892437,120.875161 157.162348,123.66021 C160.001135,129.884331 166.468037,126.740932 162.276914,130.828577 C160.994431,132.913276 158.532845,133.977426 155.776483,134.800405 C156.468018,136.0812 157.05757,137.95743 157.374698,141 C160.112898,140.803793 174.148966,138.036457 174.78043,133.818008 C177.106502,118.246805 160.311278,71.7416682 154.630911,67 Z"/>
      <path fill="#30308A" fill-rule="nonzero" d="M111.090909,386 L91.6583789,386 C91.6583789,386 89.6203033,383.353277 92.7158581,376.160482 C94.1226832,372.894224 99.4626837,369 99.4626837,369 L111.090909,369.226179 L111.090909,386 Z M125.274087,386 L155.335967,386 C155.335967,386 157.390772,383.353277 154.271168,376.160482 C152.854155,372.894224 136.744817,369 136.744817,369 L125.272727,369.226179 L125.272727,386 L125.274087,386 Z"/>
      <path fill="#9595E6" d="M108.033506,61.3267717 C121.292735,56.7331271 119.620685,51.787964 119.620685,47.8523621 C119.620685,43.9195725 137.4205,43 137.4205,43 C137.4205,43 133.964748,64.4426322 139.034655,66.3816086 C144.105942,68.3233971 127.747976,73 123.554757,73 C106.536519,73 108.033506,61.3267717 108.033506,61.3267717 Z"/>
      <path fill="#9595E6" d="M138.087698,65.3816086 C133.296663,63.4426322 136.562331,42 136.562331,42 C136.562331,42 131.075696,42.302306 126.369332,43.2921822 C128.500417,58.25 125.027633,63.8053993 118,71.4460068 C119.548815,71.7933071 121.350338,72 123.457977,72 C127.423151,72 142.880036,67.3233971 138.087698,65.3816086 Z"/>
      <path fill="#A2A2ED" d="M126.77917,44 C123.011625,44.7119813 119.710855,45.7974829 119.710855,47.4142737 C119.710855,51.1885832 121.395971,55.9310792 108.033132,60.3364631 C108.033132,60.3364631 106.902313,68.7844978 117.853478,71 C125.348281,63.6725266 127.801631,54.2913649 126.77917,44 Z"/>
      <path fill="#A8F8A9" d="M153.892469,67.5615141 C152.549063,66.4040007 151.703164,65.7054072 151.703164,65.7054072 L136.952804,59.4657289 C136.952804,59.4657289 130.810549,66.9514365 123.636677,66.9514365 C115.370185,66.9514365 113.049386,59 113.049386,59 L95.3438028,65.9069507 C93.2141442,82.9605282 93.7130076,75.4911621 90,91.896532 C90,91.896532 91.7026424,109.750836 92.686813,113.807581 C99.654633,142.489402 90.6778035,173.40999 90.6778035,173.40999 C90.6778035,173.40999 96.8688607,184.914313 111.593464,185.969692 C120.00365,186.571599 137.252393,178.094515 155,170.675535 C155,170.675535 142.276273,146.569296 142.150201,138.852086 C141.881791,122.321432 153.365138,91.7344801 153.892469,67.5615141 Z"/>
      <path fill="#81DB82" d="M142.404982,138.14527 C142.272123,129.798553 145.063488,117.874282 147.93191,105 C143.435967,111.659629 140.604745,120.093703 133.28688,119.256984 C142.393025,133.265546 138.808494,165.542703 127,182 C135.133618,178.954778 144.979787,174.327572 155,170.042969 C155,170.044334 142.52987,145.880486 142.404982,138.14527 Z"/>
      <path fill="#A2A2ED" d="M134.299261,45.9874589 C128.828572,49.8993136 111.528113,56.4363904 108.407844,50.8099374 C103.299597,41.6038846 100.657588,20.3177075 105.724958,11.1403681 C109.151804,4.93554589 116.058634,10.3145169 126.122522,9.05659791 C136.187773,7.80141352 154.48154,5.04766475 148.994501,19.7366037 C143.50746,34.4241752 139.786301,42.0619313 134.299261,45.9874589 Z"/>
      <path fill="#9595E6" d="M126.098081,9.05283804 C123.031905,9.43429973 120.264435,9.20133562 117.791581,8.86891901 C114.200281,15.6221533 116.39898,22.2146286 120.928683,27.8684358 C116.83681,30.5931621 115.861581,32.858772 116.739969,37.105258 C121.254669,42.7427169 124.998732,44.5900814 123.2024,51 C127.695276,49.5340972 132.009473,47.4660301 134.28319,45.8489049 C139.775847,41.9375603 143.500815,34.3273996 148.993471,19.6928944 C154.486129,5.05838922 136.173635,7.80218865 126.098081,9.05283804 Z"/>
      <path fill="#30308A" d="M149.923147,105 C159.612276,101.105759 180.442686,94.5879724 166.123976,75.3481774 C149.604051,53.1466236 170.996935,53.061728 163.110152,36.2236555 C155.455929,19.8798941 156.634958,9.83620368 141.415751,1.73826427 C138.028747,-0.0623428249 121.178911,0.0362455481 121.178911,0.0362455481 C103.279847,-0.746984304 97.1954099,11.2575194 103.297425,26.9139007 C103.297425,26.9139007 105.752833,7.99588739 120.08236,9.11322227 C120.08236,9.11322227 120.08236,15.741921 127.72171,23.290778 C135.581451,31.0559817 126.600821,39.4072385 130.33937,47.9091164 C137.7083,64.6664011 115.907084,68.4510992 128.342322,81.8892421 C135.907306,90.0638614 147.013433,89.6736158 149.923147,105 Z"/>
      <path fill="#30308A" d="M145.818496,68.6840837 C149.909248,67.3219656 149.909248,63.2356113 154,61.8734931 C154,60.5113751 154,57.7871389 154,56.4250208 C151.272832,55.0629028 151.272832,50.9765485 147.18208,50.9765485 C151.102385,31.3961008 146.569831,11.8170153 132.571276,0.327549163 C127.092395,0.00336505648 121.350343,0.0360558908 121.350343,0.0360558908 C103.299216,-0.74307566 97.1630877,11.1986137 103.316943,26.773072 C103.316943,26.773072 105.793211,7.95404839 120.244476,9.06553676 C120.244476,9.06553676 120.244476,15.6595504 127.948726,23.1689076 C135.87524,30.8934792 126.818315,39.2010375 130.588625,47.6584288 C138.020158,64.3280301 116.033728,68.0929244 128.574611,81.4607515 C134.412115,87.6856311 142.339993,88.9251587 147.055267,96 C151.939624,87.67201 153.859552,79.1260811 145.818496,68.6840837 Z"/>
      <path fill="#2B2B7D" d="M166.049432,75.206962 C149.416777,52.9497536 170.955644,52.8646452 163.015041,35.9843631 C155.308587,19.5996314 156.495661,9.53076344 141.1726,1.41252421 C139.744571,0.65615799 135.939671,0.234734344 132,0 C145.975351,11.5788549 150.500391,31.310267 146.586585,51.0430518 C150.670556,51.0430518 150.670556,55.1611981 153.393205,56.5339136 C153.393205,57.9066291 153.393205,60.6520599 153.393205,62.0247754 C149.309233,63.3974909 149.309233,67.5156373 145.225261,68.8883527 C153.251627,79.4102167 151.536294,87.7804227 146.661394,96.1745777 C148.105758,98.3585679 149.327708,101.396622 150.015177,105 C159.770425,101.095997 180.465852,94.4949869 166.049432,75.206962 Z"/>
      <g transform="translate(0 68)">
        <path fill="#A2A2ED" d="M52.8625425,29.432833 C53.470715,25.7346926 51.944161,22.7577377 50.5699903,19.6596677 L26.3138367,8.50606532 L12.4891352,0.574400631 C6.74696738,0.627994127 3.7249422,1.15743804 3.42305967,2.16273237 C2.97023588,3.67067387 2.18421563,5.28412762 0.601878475,8.50606532 C-0.2008549,10.1411196 2.18693675,14.1282847 3.718933,15.0930768 C7.26864721,17.3282015 20.0497953,18.7540569 20.0497953,18.7540569 L46.6991828,35 C50.5427791,33.8067408 51.6393945,33.1419837 52.8625425,29.432833 Z"/>
        <path fill="#9595E6" d="M16.0411842,13.1651392 C14.6922902,11.7817741 17.3900781,10.398409 17.3900781,9.01504411 C13.3123717,5.66868409 8.319003,3.98199692 3.45893797,2.14212143 C2.66848609,3.26264711 1.22088594,5.18173953 0.159306372,7.37022296 C-0.636541076,9.01366063 1.73076787,13.0212693 3.2496225,13.9910081 C6.76888692,16.2375929 19.440397,17.6707591 19.440397,17.6707591 L45.8611835,34 C49.6731579,32.8006225 50.7617154,32.1324572 51.9730222,28.4042884 C51.9892089,28.3102196 51.98786,28.2216843 52,28.1276155 C39.8046495,24.3468788 27.9222424,19.2588622 16.0411842,13.1651392 Z"/>
      </g>
      <g transform="matrix(-1 0 0 1 216 103)">
        <path fill="#A2A2ED" d="M52.8625425,29.432833 C53.470715,25.7346926 51.944161,22.7577377 50.5699903,19.6596677 L26.3138367,8.50606532 L12.4891352,0.574400631 C6.74696738,0.627994127 3.7249422,1.15743804 3.42305967,2.16273237 C2.97023588,3.67067387 2.18421563,5.28412762 0.601878475,8.50606532 C-0.2008549,10.1411196 2.18693675,14.1282847 3.718933,15.0930768 C7.26864721,17.3282015 20.0497953,18.7540569 20.0497953,18.7540569 L46.6991828,35 C50.5427791,33.8067408 51.6393945,33.1419837 52.8625425,29.432833 Z"/>
        <path fill="#9595E6" d="M16.0411842,13.1651392 C14.6922902,11.7817741 17.3900781,10.398409 17.3900781,9.01504411 C13.3123717,5.66868409 8.319003,3.98199692 3.45893797,2.14212143 C2.66848609,3.26264711 1.22088594,5.18173953 0.159306372,7.37022296 C-0.636541076,9.01366063 1.73076787,13.0212693 3.2496225,13.9910081 C6.76888692,16.2375929 19.440397,17.6707591 19.440397,17.6707591 L45.8611835,34 C49.6731579,32.8006225 50.7617154,32.1324572 51.9730222,28.4042884 C51.9892089,28.3102196 51.98786,28.2216843 52,28.1276155 C39.8046495,24.3468788 27.9222424,19.2588622 16.0411842,13.1651392 Z"/>
      </g>
    </g>
  </g>
</svg>
