<svg xmlns="http://www.w3.org/2000/svg" width="1440" height="4285" viewBox="0 0 1440 4285">
  <g fill="none" fill-rule="evenodd" transform="translate(-228 -1)">
    <rect width="1440" height="4286" x="228" fill="#FFF" fill-rule="nonzero"/>
    <path fill="#CAF6CA" d="M1658.5,544 C1575.93343,544 1509,477.06657 1509,394.5 C1509,311.93343 1575.93343,245 1658.5,245 C1741.06657,245 1808,311.93343 1808,394.5 C1808,477.06657 1741.06657,544 1658.5,544 Z M143.5,687 C64.2471384,687 0,622.752862 0,543.5 C0,464.247138 64.2471384,400 143.5,400 C222.752862,400 287,464.247138 287,543.5 C287,622.752862 222.752862,687 143.5,687 Z M160.5,1915 C101.129389,1915 53,1866.87061 53,1807.5 C53,1748.12939 101.129389,1700 160.5,1700 C219.870611,1700 268,1748.12939 268,1807.5 C268,1866.87061 219.870611,1915 160.5,1915 Z M1700.5,2466 C1641.12939,2466 1593,2417.87061 1593,2358.5 C1593,2299.12939 1641.12939,2251 1700.5,2251 C1759.87061,2251 1808,2299.12939 1808,2358.5 C1808,2417.87061 1759.87061,2466 1700.5,2466 Z M1710.5,1659 C1651.12939,1659 1603,1610.87061 1603,1551.5 C1603,1492.12939 1651.12939,1444 1710.5,1444 C1769.87061,1444 1818,1492.12939 1818,1551.5 C1818,1610.87061 1769.87061,1659 1710.5,1659 Z M1720,3254 C1665.87609,3254 1622,3210.12391 1622,3156 C1622,3101.87609 1665.87609,3058 1720,3058 C1774.12391,3058 1818,3101.87609 1818,3156 C1818,3210.12391 1774.12391,3254 1720,3254 Z M170,2962 C115.876095,2962 72,2918.12391 72,2864 C72,2809.87609 115.876095,2766 170,2766 C224.123905,2766 268,2809.87609 268,2864 C268,2918.12391 224.123905,2962 170,2962 Z" opacity=".696"/>
  </g>
</svg>
