<svg version="1" xmlns="http://www.w3.org/2000/svg" width="1600" height="1600" viewBox="0 0 1200.000000 1200.000000"><path d="M572.8.5c-.1.1-5.7.6-12.3.9-6.6.4-12.9.9-14 1.1-1.1.2-4.9.7-8.5 1-3.6.3-7.8.8-9.5 1-1.6.3-6.6.9-11.1 1.5-4.4.6-9 1.2-10.1 1.4-1.1.3-3.8.7-5.9 1-7.3 1.1-29.6 5.7-37.7 7.7-4.5 1.1-8.9 2.2-9.8 2.4-12.1 2.7-53.5 15.6-62.4 19.4-1.1.5-9 3.7-17.5 7.1-33 13.4-68.8 32.2-100.5 52.9-11.8 7.6-38.4 26.7-40.5 29.1-.3.3-2.3 1.9-4.5 3.5-24.8 18.4-69 62.3-92 91-2.1 2.8-4.2 5.2-4.5 5.5-4.2 3.5-36.7 50.5-45.5 65.8-1.6 2.8-7.1 12.4-9.6 16.7-3.9 6.9-19.4 37.7-21.8 43.5-1.3 3-3.4 7.7-4.6 10.5-7.5 16.6-17.5 44.4-24.1 67-4 13.5-11 41.8-12 47.9-.3 2.2-.7 4.3-.9 4.6-.4.6-5.2 29-5.9 34.5-4.5 37.9-5.1 46.8-5.1 81.5 0 25.9.7 44.8 1.9 55.5.3 2.2 1 8.9 1.7 15 .6 6 1.3 11.9 1.5 13 .2 1 .6 3.7.9 6 1.3 9.2 3.7 22.6 5.6 31.5 1.1 5.2 2.3 10.6 2.5 11.9.3 1.3 1.2 5.1 2 8.5.8 3.4 1.7 6.9 1.9 7.8 8.1 35.4 27.3 85.9 47 124.3 11 21.3 11.9 22.9 12.8 23.3.4.2.7.8.7 1.3 0 1.4 11 19.3 21.3 34.9 8 12 25 35.7 26.6 37 .3.3 1.9 2.3 3.6 4.5 1.6 2.2 3.4 4.5 4 5.1.5.6 2.4 2.8 4 4.9 1.7 2.1 3.5 4.3 4.1 4.9.5.6 4.3 4.9 8.4 9.6 11 12.7 40.8 42.2 54.6 54.1 16.1 13.9 16.6 14.3 34.1 27.5 55.1 41.5 117.1 73.3 181.8 93.3 11.6 3.5 29 8.4 34.5 9.7 1.1.2 2.8.6 3.8.8 5.2 1.3 30.1 6.6 32.7 6.9 1.7.3 5.9 1 9.3 1.7 3.5.6 7.8 1.3 9.5 1.4 1.8.2 5 .6 7.2 1 4.9.8 8.1 1.2 17 2.1 3.9.4 8.6.8 10.5 1.1 22.1 2.6 89.5 2.5 109.5-.1 1.7-.2 5.7-.7 9-1 3.3-.3 7.4-.8 9-1 3.8-.5 17.9-2.5 22.5-3.2 3.5-.5 28.6-5.2 30.5-5.7.8-.2 7.5-1.7 9.5-2.1 23.8-4.9 74.2-21.3 100.2-32.8 32.9-14.5 54.3-25.7 81.3-42.7 24-15 41.6-27.6 62-44.4 10.9-8.9 12.5-10.3 23.4-20.1 17.3-15.4 49.3-49.2 61.6-64.9 1.7-2.1 4.2-5.3 5.8-7 1.5-1.7 2.9-4 3.2-5.1.7-2.9 0-436.5-.7-439.5-.4-1.4-.9-5.2-1.2-8.5-2.1-21.5-7.3-40.8-14.1-53-9.8-17.5-28.2-30-48.7-33-2.3-.4-6.1-1-8.3-1.3-7.9-1.4-22.6-.5-33.3 1.9-10.9 2.4-27.7 9.6-40.1 17.1-7.2 4.4-24.4 16.5-27.6 19.5-1.1 1-4 3.5-6.5 5.5-12.3 10.1-25 22.5-25.1 24.6 0 .9-.1 107.3-.1 236.4l-.1 234.8-3.1.1c-4 .1-197 .1-201.2 0l-3.1-.1V759.3c0-117.1-.3-216.2-.7-220.3-.3-4.1-.9-10.7-1.2-14.5-2-28-10.2-54.6-20.5-67-4.3-5.3-11.1-11.2-16.6-14.6-14.1-8.5-37.6-12.9-56.2-10.7-10.9 1.3-11.7 1.5-20.3 4.3-25.7 8.3-52.7 26.5-80.9 54.5l-8.5 8.5v235.8c.1 141.7-.3 236.1-.8 236.5-.7.4-190.1.7-203.8.3l-2.8-.1V272h84.4c46.5 0 84.7.3 84.9.7.3.5.8 3.3 1.2 6.3.4 3 .8 5.7 1 6 .2.3.6 2.7.9 5.5 1.1 8.1 1.6 11.5 3.1 20.5.8 4.7 1.7 10.2 2 12.2.3 2.1.7 5.5 1 7.5 1 7.2 4.6 28.8 5.1 30.4.8 3 5.4 1.3 10.8-3.9 9.8-9.5 22.1-20.7 28.6-26.1 1.4-1.2 3.4-3 4.5-4 10.4-9.5 50.6-38.4 62.5-45 18.8-10.4 42.4-19.1 61-22.4 19.3-3.5 27.5-4.2 51-4.2 32.4.1 48.5 2.2 75.7 9.8 34.2 9.6 67.7 33.6 91.5 65.4 8.4 11.3 15.2 22.2 20.8 33.2 2.3 4.6 4.3 8.1 4.5 8 22.3-22.2 49.6-46.8 62.5-56.4 1.5-1.1 6.9-5.2 12.1-9.1 13.1-9.8 25.2-18.2 32.6-22.6 6.5-3.9 25.9-13 33.3-15.7 7.9-2.8 28-8.1 36-9.5 12.6-2.1 22-2.9 40.5-3.1 11.6-.1 23.4.1 26.3.4 2.8.4 5.2.4 5.2-.1 0-1.1-12.4-17.9-22.4-30.3-14.5-18.2-25.9-30.8-43.1-48-19.2-19.3-25.7-25.3-46.6-42.8-11.7-9.8-51.8-38.3-65.4-46.4-25.2-15-46-26-68.5-36-8.5-3.8-17.1-7.5-19-8.3-1.9-.7-5.1-1.9-7-2.8-6.5-2.8-37.2-13.2-50.9-17.2-28.5-8.2-59.7-15-80.6-17.5-2.7-.4-5.7-.8-6.5-1-.8-.3-4.2-.7-7.5-1-3.3-.4-7.6-.8-9.5-1-1.9-.2-7.1-.7-11.5-1-4.4-.4-9.1-.9-10.5-1.1-2.7-.6-70.6-1.4-71.2-.9z"/></svg>